<?xml version="1.0" encoding="UTF-8" standalone="no"?>
<!DOCTYPE svg PUBLIC "-//W3C//DTD SVG 1.1//EN"
 "http://www.w3.org/Graphics/SVG/1.1/DTD/svg11.dtd">
<!-- Generated by graphviz version 2.40.1 (20161225.0304)
 -->
<!-- Title: G Pages: 1 -->
<svg width="1012pt" height="559pt"
 viewBox="0.00 0.00 1012.48 559.00" xmlns="http://www.w3.org/2000/svg" xmlns:xlink="http://www.w3.org/1999/xlink">
<g id="graph0" class="graph" transform="scale(1 1) rotate(0) translate(4 555)">
<title>G</title>
<polygon fill="#ffffff" stroke="transparent" points="-4,4 -4,-555 1008.481,-555 1008.481,4 -4,4"/>
<!-- A -->
<g id="node1" class="node">
<title>A</title>
<ellipse fill="none" stroke="#000000" cx="421.5928" cy="-533" rx="96.6831" ry="18"/>
<text text-anchor="middle" x="421.5928" y="-529.3" font-family="Times,serif" font-size="14.00" fill="#000000">New component needed</text>
</g>
<!-- B -->
<g id="node2" class="node">
<title>B</title>
<polygon fill="none" stroke="#000000" points="421.5928,-478 221.3402,-460 421.5928,-442 621.8455,-460 421.5928,-478"/>
<text text-anchor="middle" x="421.5928" y="-456.3" font-family="Times,serif" font-size="14.00" fill="#000000">Can it be declared using Expression?</text>
</g>
<!-- A&#45;&gt;B -->
<g id="edge1" class="edge">
<title>A&#45;&gt;B</title>
<path fill="none" stroke="#000000" d="M421.5928,-514.9551C421.5928,-506.8828 421.5928,-497.1764 421.5928,-488.1817"/>
<polygon fill="#000000" stroke="#000000" points="425.0929,-488.0903 421.5928,-478.0904 418.0929,-488.0904 425.0929,-488.0903"/>
</g>
<!-- C -->
<g id="node3" class="node">
<title>C</title>
<polygon fill="none" stroke="#000000" points="321.5928,-391 149.828,-373 321.5928,-355 493.3577,-373 321.5928,-391"/>
<text text-anchor="middle" x="321.5928" y="-369.3" font-family="Times,serif" font-size="14.00" fill="#000000">Can it be useful to other users?</text>
</g>
<!-- B&#45;&gt;C -->
<g id="edge2" class="edge">
<title>B&#45;&gt;C</title>
<path fill="none" stroke="#000000" d="M402.7836,-443.636C387.4194,-430.2691 365.5128,-411.2104 348.3263,-396.2581"/>
<polygon fill="#000000" stroke="#000000" points="350.1595,-393.2138 340.3177,-389.2907 345.5649,-398.4949 350.1595,-393.2138"/>
<text text-anchor="middle" x="388.0928" y="-412.8" font-family="Times,serif" font-size="14.00" fill="#000000">Yes</text>
</g>
<!-- F -->
<g id="node6" class="node">
<title>F</title>
<ellipse fill="none" stroke="#000000" cx="521.5928" cy="-319" rx="155.9723" ry="18"/>
<text text-anchor="middle" x="521.5928" y="-315.3" font-family="Times,serif" font-size="14.00" fill="#000000">Create new component from the scratch</text>
</g>
<!-- B&#45;&gt;F -->
<g id="edge3" class="edge">
<title>B&#45;&gt;F</title>
<path fill="none" stroke="#000000" d="M447.5464,-444.0843C465.558,-431.7389 488.7213,-413.0461 502.5928,-391 510.8772,-377.8336 515.5714,-361.1375 518.2202,-347.1387"/>
<polygon fill="#000000" stroke="#000000" points="521.7081,-347.4972 519.8726,-337.0626 514.8003,-346.3644 521.7081,-347.4972"/>
<text text-anchor="middle" x="496.0928" y="-412.8" font-family="Times,serif" font-size="14.00" fill="#000000">No</text>
</g>
<!-- D -->
<g id="node4" class="node">
<title>D</title>
<ellipse fill="none" stroke="#000000" cx="80.5928" cy="-265" rx="80.6858" ry="18"/>
<text text-anchor="middle" x="80.5928" y="-261.3" font-family="Times,serif" font-size="14.00" fill="#000000">Just use Expression</text>
</g>
<!-- C&#45;&gt;D -->
<g id="edge5" class="edge">
<title>C&#45;&gt;D</title>
<path fill="none" stroke="#000000" d="M288.8397,-358.3222C246.731,-339.452 173.3987,-306.5894 125.9449,-285.3237"/>
<polygon fill="#000000" stroke="#000000" points="127.373,-282.1284 116.8161,-281.2328 124.5104,-288.5163 127.373,-282.1284"/>
<text text-anchor="middle" x="246.0928" y="-315.3" font-family="Times,serif" font-size="14.00" fill="#000000">No</text>
</g>
<!-- E -->
<g id="node5" class="node">
<title>E</title>
<ellipse fill="none" stroke="#000000" cx="336.5928" cy="-265" rx="157.0724" ry="18"/>
<text text-anchor="middle" x="336.5928" y="-261.3" font-family="Times,serif" font-size="14.00" fill="#000000">Create new component using Expression</text>
</g>
<!-- C&#45;&gt;E -->
<g id="edge4" class="edge">
<title>C&#45;&gt;E</title>
<path fill="none" stroke="#000000" d="M324.0698,-355.166C326.4115,-338.3054 329.9624,-312.739 332.6858,-293.131"/>
<polygon fill="#000000" stroke="#000000" points="336.153,-293.6079 334.0621,-283.2215 329.2196,-292.6449 336.153,-293.6079"/>
<text text-anchor="middle" x="342.0928" y="-315.3" font-family="Times,serif" font-size="14.00" fill="#000000">Yes</text>
</g>
<!-- G -->
<g id="node7" class="node">
<title>G</title>
<polygon fill="none" stroke="#000000" points="428.5928,-210 268.7261,-192 428.5928,-174 588.4596,-192 428.5928,-210"/>
<text text-anchor="middle" x="428.5928" y="-188.3" font-family="Times,serif" font-size="14.00" fill="#000000">Is it useful for general users?</text>
</g>
<!-- E&#45;&gt;G -->
<g id="edge6" class="edge">
<title>E&#45;&gt;G</title>
<path fill="none" stroke="#000000" d="M359.3344,-246.9551C371.8489,-237.0251 387.48,-224.6221 400.724,-214.1133"/>
<polygon fill="#000000" stroke="#000000" points="402.9545,-216.8115 408.6125,-207.854 398.6034,-211.328 402.9545,-216.8115"/>
</g>
<!-- F&#45;&gt;G -->
<g id="edge7" class="edge">
<title>F&#45;&gt;G</title>
<path fill="none" stroke="#000000" d="M520.1465,-300.7586C518.1765,-285.313 513.5317,-263.1684 502.5928,-247 493.2482,-233.188 479.2541,-221.5091 465.9423,-212.5146"/>
<polygon fill="#000000" stroke="#000000" points="467.6544,-209.4545 457.3487,-206.9961 463.8719,-215.3446 467.6544,-209.4545"/>
</g>
<!-- H -->
<g id="node8" class="node">
<title>H</title>
<ellipse fill="none" stroke="#000000" cx="406.5928" cy="-105" rx="103.9815" ry="18"/>
<text text-anchor="middle" x="406.5928" y="-101.3" font-family="Times,serif" font-size="14.00" fill="#000000">Contribute it to HyperSpy</text>
</g>
<!-- G&#45;&gt;H -->
<g id="edge8" class="edge">
<title>G&#45;&gt;H</title>
<path fill="none" stroke="#000000" d="M424.1408,-174.3943C421.1392,-162.5244 417.115,-146.6102 413.6774,-133.0162"/>
<polygon fill="#000000" stroke="#000000" points="417.0345,-132.0152 411.1897,-123.1785 410.2481,-133.7314 417.0345,-132.0152"/>
<text text-anchor="middle" x="430.0928" y="-144.8" font-family="Times,serif" font-size="14.00" fill="#000000">Yes</text>
</g>
<!-- I -->
<g id="node9" class="node">
<title>I</title>
<polygon fill="none" stroke="#000000" points="723.5928,-123 528.8701,-105 723.5928,-87 918.3156,-105 723.5928,-123"/>
<text text-anchor="middle" x="723.5928" y="-101.3" font-family="Times,serif" font-size="14.00" fill="#000000">Does a suitable package for it exist?</text>
</g>
<!-- G&#45;&gt;I -->
<g id="edge9" class="edge">
<title>G&#45;&gt;I</title>
<path fill="none" stroke="#000000" d="M473.0767,-178.881C524.8549,-163.6109 610.4609,-138.3643 666.9477,-121.7055"/>
<polygon fill="#000000" stroke="#000000" points="668.1923,-124.9876 676.7939,-118.8017 666.2122,-118.2735 668.1923,-124.9876"/>
<text text-anchor="middle" x="603.0928" y="-144.8" font-family="Times,serif" font-size="14.00" fill="#000000">No</text>
</g>
<!-- J -->
<g id="node10" class="node">
<title>J</title>
<ellipse fill="none" stroke="#000000" cx="576.5928" cy="-18" rx="142.1749" ry="18"/>
<text text-anchor="middle" x="576.5928" y="-14.3" font-family="Times,serif" font-size="14.00" fill="#000000">Contribute it to the relevant package</text>
</g>
<!-- I&#45;&gt;J -->
<g id="edge10" class="edge">
<title>I&#45;&gt;J</title>
<path fill="none" stroke="#000000" d="M696.9723,-89.245C674.1769,-75.7538 641.0565,-56.1519 615.324,-40.9225"/>
<polygon fill="#000000" stroke="#000000" points="616.9477,-37.8165 606.5593,-35.7352 613.3824,-43.8405 616.9477,-37.8165"/>
<text text-anchor="middle" x="670.0928" y="-57.8" font-family="Times,serif" font-size="14.00" fill="#000000">Yes</text>
</g>
<!-- K -->
<g id="node11" class="node">
<title>K</title>
<ellipse fill="none" stroke="#000000" cx="870.5928" cy="-18" rx="133.7763" ry="18"/>
<text text-anchor="middle" x="870.5928" y="-14.3" font-family="Times,serif" font-size="14.00" fill="#000000">Create your own package to host it</text>
</g>
<!-- I&#45;&gt;K -->
<g id="edge11" class="edge">
<title>I&#45;&gt;K</title>
<path fill="none" stroke="#000000" d="M750.2134,-89.245C773.0828,-75.71 806.3444,-56.0246 832.1121,-40.7743"/>
<polygon fill="#000000" stroke="#000000" points="834.0615,-43.6877 840.8846,-35.5824 830.4962,-37.6637 834.0615,-43.6877"/>
<text text-anchor="middle" x="814.0928" y="-57.8" font-family="Times,serif" font-size="14.00" fill="#000000">No</text>
</g>
</g>
</svg>
