<?xml version="1.0" encoding="UTF-8" standalone="no"?>
<!DOCTYPE svg PUBLIC "-//W3C//DTD SVG 1.1//EN"
 "http://www.w3.org/Graphics/SVG/1.1/DTD/svg11.dtd">
<!-- Generated by graphviz version 2.40.1 (20161225.0304)
 -->
<!-- Title: G Pages: 1 -->
<svg width="950pt" height="559pt"
 viewBox="0.00 0.00 950.48 559.00" xmlns="http://www.w3.org/2000/svg" xmlns:xlink="http://www.w3.org/1999/xlink">
<g id="graph0" class="graph" transform="scale(1 1) rotate(0) translate(4 555)">
<title>G</title>
<polygon fill="#ffffff" stroke="transparent" points="-4,4 -4,-555 946.481,-555 946.481,4 -4,4"/>
<!-- A -->
<g id="node1" class="node">
<title>A</title>
<ellipse fill="none" stroke="#000000" cx="421.9429" cy="-533" rx="96.6831" ry="18"/>
<text text-anchor="middle" x="421.9429" y="-529.3" font-family="Times,serif" font-size="14.00" fill="#000000">New component needed</text>
</g>
<!-- B -->
<g id="node2" class="node">
<title>B</title>
<ellipse fill="none" stroke="#000000" cx="421.9429" cy="-460" rx="141.8751" ry="18"/>
<text text-anchor="middle" x="421.9429" y="-456.3" font-family="Times,serif" font-size="14.00" fill="#000000">Can it be declared using Expression?</text>
</g>
<!-- A&#45;&gt;B -->
<g id="edge1" class="edge">
<title>A&#45;&gt;B</title>
<path fill="none" stroke="#000000" d="M421.9429,-514.9551C421.9429,-506.8828 421.9429,-497.1764 421.9429,-488.1817"/>
<polygon fill="#000000" stroke="#000000" points="425.443,-488.0903 421.9429,-478.0904 418.443,-488.0904 425.443,-488.0903"/>
</g>
<!-- C -->
<g id="node3" class="node">
<title>C</title>
<ellipse fill="none" stroke="#000000" cx="332.9429" cy="-373" rx="120.7786" ry="18"/>
<text text-anchor="middle" x="332.9429" y="-369.3" font-family="Times,serif" font-size="14.00" fill="#000000">Can it be useful to other users?</text>
</g>
<!-- B&#45;&gt;C -->
<g id="edge2" class="edge">
<title>B&#45;&gt;C</title>
<path fill="none" stroke="#000000" d="M403.502,-441.9735C390.4948,-429.2586 372.9011,-412.0603 358.5363,-398.0183"/>
<polygon fill="#000000" stroke="#000000" points="360.9577,-395.4908 351.3601,-391.0034 356.0645,-400.4965 360.9577,-395.4908"/>
<text text-anchor="middle" x="393.9429" y="-412.8" font-family="Times,serif" font-size="14.00" fill="#000000">Yes</text>
</g>
<!-- F -->
<g id="node6" class="node">
<title>F</title>
<ellipse fill="none" stroke="#000000" cx="513.9429" cy="-319" rx="153.2729" ry="18"/>
<text text-anchor="middle" x="513.9429" y="-315.3" font-family="Times,serif" font-size="14.00" fill="#000000">Create new component from the scratch</text>
</g>
<!-- B&#45;&gt;F -->
<g id="edge3" class="edge">
<title>B&#45;&gt;F</title>
<path fill="none" stroke="#000000" d="M433.782,-441.8554C449.722,-417.4255 478.1997,-373.7803 496.5691,-345.6272"/>
<polygon fill="#000000" stroke="#000000" points="499.616,-347.3625 502.1493,-337.075 493.7535,-343.5373 499.616,-347.3625"/>
<text text-anchor="middle" x="463.4429" y="-412.8" font-family="Times,serif" font-size="14.00" fill="#000000">No</text>
</g>
<!-- D -->
<g id="node4" class="node">
<title>D</title>
<ellipse fill="none" stroke="#000000" cx="79.9429" cy="-265" rx="79.8859" ry="18"/>
<text text-anchor="middle" x="79.9429" y="-261.3" font-family="Times,serif" font-size="14.00" fill="#000000">Just use Expression</text>
</g>
<!-- C&#45;&gt;D -->
<g id="edge5" class="edge">
<title>C&#45;&gt;D</title>
<path fill="none" stroke="#000000" d="M292.8543,-355.8871C247.7519,-336.6339 174.5767,-305.3971 126.8532,-285.025"/>
<polygon fill="#000000" stroke="#000000" points="127.9408,-281.6837 117.3696,-280.9766 125.1926,-288.1217 127.9408,-281.6837"/>
<text text-anchor="middle" x="252.4429" y="-315.3" font-family="Times,serif" font-size="14.00" fill="#000000">No</text>
</g>
<!-- E -->
<g id="node5" class="node">
<title>E</title>
<ellipse fill="none" stroke="#000000" cx="332.9429" cy="-265" rx="155.1726" ry="18"/>
<text text-anchor="middle" x="332.9429" y="-261.3" font-family="Times,serif" font-size="14.00" fill="#000000">Create new component using Expression</text>
</g>
<!-- C&#45;&gt;E -->
<g id="edge4" class="edge">
<title>C&#45;&gt;E</title>
<path fill="none" stroke="#000000" d="M331.122,-354.7043C330.6376,-349.0358 330.1827,-342.7649 329.9429,-337 329.278,-321.0138 329.278,-316.9862 329.9429,-301 330.0441,-298.5679 330.1835,-296.0458 330.3473,-293.5168"/>
<polygon fill="#000000" stroke="#000000" points="333.8561,-293.5317 331.122,-283.2957 326.8762,-293.0026 333.8561,-293.5317"/>
<text text-anchor="middle" x="340.9429" y="-315.3" font-family="Times,serif" font-size="14.00" fill="#000000">Yes</text>
</g>
<!-- G -->
<g id="node7" class="node">
<title>G</title>
<ellipse fill="none" stroke="#000000" cx="423.9429" cy="-192" rx="113.9803" ry="18"/>
<text text-anchor="middle" x="423.9429" y="-188.3" font-family="Times,serif" font-size="14.00" fill="#000000">Is it useful for general users?</text>
</g>
<!-- E&#45;&gt;G -->
<g id="edge6" class="edge">
<title>E&#45;&gt;G</title>
<path fill="none" stroke="#000000" d="M355.4373,-246.9551C367.0082,-237.6729 381.2727,-226.2299 393.7844,-216.1931"/>
<polygon fill="#000000" stroke="#000000" points="396.097,-218.8249 401.7073,-209.8374 391.7168,-213.3647 396.097,-218.8249"/>
</g>
<!-- F&#45;&gt;G -->
<g id="edge7" class="edge">
<title>F&#45;&gt;G</title>
<path fill="none" stroke="#000000" d="M513.0608,-300.794C511.5559,-285.3705 507.5467,-263.2384 496.9429,-247 488.6953,-234.3698 476.5069,-223.5357 464.4417,-214.9054"/>
<polygon fill="#000000" stroke="#000000" points="466.3992,-212.004 456.1585,-209.2876 462.4701,-217.7973 466.3992,-212.004"/>
</g>
<!-- H -->
<g id="node8" class="node">
<title>H</title>
<ellipse fill="none" stroke="#000000" cx="401.9429" cy="-105" rx="102.8821" ry="18"/>
<text text-anchor="middle" x="401.9429" y="-101.3" font-family="Times,serif" font-size="14.00" fill="#000000">Contribute it to HyperSpy</text>
</g>
<!-- G&#45;&gt;H -->
<g id="edge8" class="edge">
<title>G&#45;&gt;H</title>
<path fill="none" stroke="#000000" d="M419.3845,-173.9735C416.3757,-162.0751 412.3741,-146.2508 408.9628,-132.7606"/>
<polygon fill="#000000" stroke="#000000" points="412.3403,-131.8401 406.4955,-123.0034 405.5539,-133.5563 412.3403,-131.8401"/>
<text text-anchor="middle" x="425.9429" y="-144.8" font-family="Times,serif" font-size="14.00" fill="#000000">Yes</text>
</g>
<!-- I -->
<g id="node9" class="node">
<title>I</title>
<ellipse fill="none" stroke="#000000" cx="661.9429" cy="-105" rx="139.1754" ry="18"/>
<text text-anchor="middle" x="661.9429" y="-101.3" font-family="Times,serif" font-size="14.00" fill="#000000">Does a suitable package for it exist?</text>
</g>
<!-- G&#45;&gt;I -->
<g id="edge9" class="edge">
<title>G&#45;&gt;I</title>
<path fill="none" stroke="#000000" d="M469.2691,-175.4312C508.0574,-161.2523 564.0628,-140.7797 605.7046,-125.5577"/>
<polygon fill="#000000" stroke="#000000" points="606.9687,-128.8222 615.1592,-122.1016 604.5654,-122.2477 606.9687,-128.8222"/>
<text text-anchor="middle" x="566.4429" y="-144.8" font-family="Times,serif" font-size="14.00" fill="#000000">No</text>
</g>
<!-- J -->
<g id="node10" class="node">
<title>J</title>
<ellipse fill="none" stroke="#000000" cx="515.9429" cy="-18" rx="139.9756" ry="18"/>
<text text-anchor="middle" x="515.9429" y="-14.3" font-family="Times,serif" font-size="14.00" fill="#000000">Contribute it to the relevant package</text>
</g>
<!-- I&#45;&gt;J -->
<g id="edge10" class="edge">
<title>I&#45;&gt;J</title>
<path fill="none" stroke="#000000" d="M632.3976,-87.3943C609.912,-73.9953 578.778,-55.4428 554.3587,-40.8916"/>
<polygon fill="#000000" stroke="#000000" points="556.0766,-37.841 545.6944,-35.7287 552.4933,-43.8543 556.0766,-37.841"/>
<text text-anchor="middle" x="608.9429" y="-57.8" font-family="Times,serif" font-size="14.00" fill="#000000">Yes</text>
</g>
<!-- K -->
<g id="node11" class="node">
<title>K</title>
<ellipse fill="none" stroke="#000000" cx="807.9429" cy="-18" rx="134.5761" ry="18"/>
<text text-anchor="middle" x="807.9429" y="-14.3" font-family="Times,serif" font-size="14.00" fill="#000000">Create your own package to host it</text>
</g>
<!-- I&#45;&gt;K -->
<g id="edge11" class="edge">
<title>I&#45;&gt;K</title>
<path fill="none" stroke="#000000" d="M691.4882,-87.3943C714.048,-73.9511 745.3134,-55.3203 769.7686,-40.7477"/>
<polygon fill="#000000" stroke="#000000" points="771.6427,-43.7053 778.4416,-35.5796 768.0594,-37.6919 771.6427,-43.7053"/>
<text text-anchor="middle" x="751.4429" y="-57.8" font-family="Times,serif" font-size="14.00" fill="#000000">No</text>
</g>
</g>
</svg>
