<?xml version="1.0" encoding="UTF-8" standalone="no"?>
<!DOCTYPE svg PUBLIC "-//W3C//DTD SVG 1.1//EN"
 "http://www.w3.org/Graphics/SVG/1.1/DTD/svg11.dtd">
<!-- Generated by graphviz version 2.44.0 (0)
 -->
<!-- Title: G Pages: 1 -->
<svg width="1803pt" height="538pt"
 viewBox="0.00 0.00 1803.01 538.00" xmlns="http://www.w3.org/2000/svg" xmlns:xlink="http://www.w3.org/1999/xlink">
<g id="graph0" class="graph" transform="scale(1 1) rotate(0) translate(4 534)">
<title>G</title>
<polygon fill="white" stroke="transparent" points="-4,4 -4,-534 1799.01,-534 1799.01,4 -4,4"/>
<!-- A -->
<g id="node1" class="node">
<title>A</title>
<ellipse fill="none" stroke="black" cx="325.38" cy="-512" rx="110.48" ry="18"/>
<text text-anchor="middle" x="325.38" y="-508.3" font-family="Times-Roman" font-size="14.00">New function needed!</text>
</g>
<!-- B -->
<g id="node2" class="node">
<title>B</title>
<polygon fill="none" stroke="black" points="325.38,-457 0.12,-439 325.38,-421 650.65,-439 325.38,-457"/>
<text text-anchor="middle" x="325.38" y="-435.3" font-family="Times-Roman" font-size="14.00">Is it useful for data of any type and dimensions?</text>
</g>
<!-- A&#45;&gt;B -->
<g id="edge1" class="edge">
<title>A&#45;&gt;B</title>
<path fill="none" stroke="black" d="M325.38,-493.81C325.38,-485.79 325.38,-476.05 325.38,-467.07"/>
<polygon fill="black" stroke="black" points="328.88,-467.03 325.38,-457.03 321.88,-467.03 328.88,-467.03"/>
</g>
<!-- C -->
<g id="node3" class="node">
<title>C</title>
<ellipse fill="none" stroke="black" cx="302.38" cy="-352" rx="131.88" ry="18"/>
<text text-anchor="middle" x="302.38" y="-348.3" font-family="Times-Roman" font-size="14.00">Contribute it to BaseSignal</text>
</g>
<!-- B&#45;&gt;C -->
<g id="edge2" class="edge">
<title>B&#45;&gt;C</title>
<path fill="none" stroke="black" d="M320.84,-421.21C317.65,-409.41 313.31,-393.38 309.64,-379.82"/>
<polygon fill="black" stroke="black" points="312.99,-378.79 307,-370.05 306.23,-380.62 312.99,-378.79"/>
<text text-anchor="middle" x="326.88" y="-391.8" font-family="Times-Roman" font-size="14.00">Yes</text>
</g>
<!-- D -->
<g id="node4" class="node">
<title>D</title>
<polygon fill="none" stroke="black" points="870.38,-370 451.95,-352 870.38,-334 1288.81,-352 870.38,-370"/>
<text text-anchor="middle" x="870.38" y="-348.3" font-family="Times-Roman" font-size="14.00">Does a SignalxD for the required dimension exist in HyperSpy?</text>
</g>
<!-- B&#45;&gt;D -->
<g id="edge3" class="edge">
<title>B&#45;&gt;D</title>
<path fill="none" stroke="black" d="M406.09,-425.41C504.41,-410.08 670.28,-384.21 774.86,-367.9"/>
<polygon fill="black" stroke="black" points="775.44,-371.35 784.79,-366.35 774.37,-364.43 775.44,-371.35"/>
<text text-anchor="middle" x="640.88" y="-391.8" font-family="Times-Roman" font-size="14.00">No</text>
</g>
<!-- E -->
<g id="node5" class="node">
<title>E</title>
<ellipse fill="none" stroke="black" cx="715.38" cy="-265" rx="181.97" ry="18"/>
<text text-anchor="middle" x="715.38" y="-261.3" font-family="Times-Roman" font-size="14.00">Contribute new SignalxD to HyperSpy</text>
</g>
<!-- D&#45;&gt;E -->
<g id="edge5" class="edge">
<title>D&#45;&gt;E</title>
<path fill="none" stroke="black" d="M841.59,-335.21C817.21,-321.84 782.01,-302.54 754.97,-287.71"/>
<polygon fill="black" stroke="black" points="756.59,-284.61 746.14,-282.87 753.23,-290.75 756.59,-284.61"/>
<text text-anchor="middle" x="811.88" y="-304.8" font-family="Times-Roman" font-size="14.00">No</text>
</g>
<!-- F -->
<g id="node6" class="node">
<title>F</title>
<polygon fill="none" stroke="black" points="824.38,-210 467.62,-192 824.38,-174 1181.15,-192 824.38,-210"/>
<text text-anchor="middle" x="824.38" y="-188.3" font-family="Times-Roman" font-size="14.00">Is the function useful for a specific type of data only?</text>
</g>
<!-- D&#45;&gt;F -->
<g id="edge4" class="edge">
<title>D&#45;&gt;F</title>
<path fill="none" stroke="black" d="M884.23,-334.47C900.11,-313.36 922.06,-276.1 906.38,-247 898.69,-232.72 885.38,-221.6 871.7,-213.25"/>
<polygon fill="black" stroke="black" points="873.14,-210.05 862.72,-208.17 869.7,-216.14 873.14,-210.05"/>
<text text-anchor="middle" x="923.88" y="-261.3" font-family="Times-Roman" font-size="14.00">Yes</text>
</g>
<!-- E&#45;&gt;F -->
<g id="edge6" class="edge">
<title>E&#45;&gt;F</title>
<path fill="none" stroke="black" d="M741.21,-247.17C756.19,-237.42 775.21,-225.03 791.28,-214.56"/>
<polygon fill="black" stroke="black" points="793.39,-217.36 799.86,-208.97 789.57,-211.5 793.39,-217.36"/>
</g>
<!-- G -->
<g id="node7" class="node">
<title>G</title>
<ellipse fill="none" stroke="black" cx="803.38" cy="-105" rx="122.38" ry="18"/>
<text text-anchor="middle" x="803.38" y="-101.3" font-family="Times-Roman" font-size="14.00">Contribute it to SignalxD</text>
</g>
<!-- F&#45;&gt;G -->
<g id="edge8" class="edge">
<title>F&#45;&gt;G</title>
<path fill="none" stroke="black" d="M820.23,-174.21C817.32,-162.41 813.36,-146.38 810.01,-132.82"/>
<polygon fill="black" stroke="black" points="813.39,-131.92 807.59,-123.05 806.59,-133.6 813.39,-131.92"/>
<text text-anchor="middle" x="824.88" y="-144.8" font-family="Times-Roman" font-size="14.00">No</text>
</g>
<!-- H -->
<g id="node8" class="node">
<title>H</title>
<polygon fill="none" stroke="black" points="1215.38,-123 943.24,-105 1215.38,-87 1487.52,-105 1215.38,-123"/>
<text text-anchor="middle" x="1215.38" y="-101.3" font-family="Times-Roman" font-size="14.00">Does a signal for that sort of data exist?</text>
</g>
<!-- F&#45;&gt;H -->
<g id="edge7" class="edge">
<title>F&#45;&gt;H</title>
<path fill="none" stroke="black" d="M888.07,-177.15C958.65,-161.81 1072.13,-137.14 1145.22,-121.25"/>
<polygon fill="black" stroke="black" points="1146.22,-124.62 1155.25,-119.07 1144.74,-117.78 1146.22,-124.62"/>
<text text-anchor="middle" x="1053.88" y="-144.8" font-family="Times-Roman" font-size="14.00">Yes</text>
</g>
<!-- I -->
<g id="node9" class="node">
<title>I</title>
<ellipse fill="none" stroke="black" cx="934.38" cy="-18" rx="243.16" ry="18"/>
<text text-anchor="middle" x="934.38" y="-14.3" font-family="Times-Roman" font-size="14.00">Contribute to package providing the relevant signal</text>
</g>
<!-- H&#45;&gt;I -->
<g id="edge9" class="edge">
<title>H&#45;&gt;I</title>
<path fill="none" stroke="black" d="M1168.98,-89.96C1122.7,-75.97 1051.22,-54.34 999.32,-38.64"/>
<polygon fill="black" stroke="black" points="1000.13,-35.23 989.54,-35.69 998.1,-41.93 1000.13,-35.23"/>
<text text-anchor="middle" x="1102.88" y="-57.8" font-family="Times-Roman" font-size="14.00">Yes</text>
</g>
<!-- J -->
<g id="node10" class="node">
<title>J</title>
<ellipse fill="none" stroke="black" cx="1495.38" cy="-18" rx="299.75" ry="18"/>
<text text-anchor="middle" x="1495.38" y="-14.3" font-family="Times-Roman" font-size="14.00">Create you own package and signal subclass to host the funtion</text>
</g>
<!-- H&#45;&gt;J -->
<g id="edge10" class="edge">
<title>H&#45;&gt;J</title>
<path fill="none" stroke="black" d="M1261.62,-89.96C1307.58,-76.01 1378.51,-54.48 1430.18,-38.79"/>
<polygon fill="black" stroke="black" points="1431.37,-42.09 1439.92,-35.84 1429.34,-35.39 1431.37,-42.09"/>
<text text-anchor="middle" x="1380.88" y="-57.8" font-family="Times-Roman" font-size="14.00">No</text>
</g>
</g>
</svg>
