<?xml version="1.0" encoding="UTF-8" standalone="no"?>
<!DOCTYPE svg PUBLIC "-//W3C//DTD SVG 1.1//EN"
 "http://www.w3.org/Graphics/SVG/1.1/DTD/svg11.dtd">
<!-- Generated by graphviz version 2.40.1 (20161225.0304)
 -->
<!-- Title: G Pages: 1 -->
<svg width="1452pt" height="538pt"
 viewBox="0.00 0.00 1451.56 538.00" xmlns="http://www.w3.org/2000/svg" xmlns:xlink="http://www.w3.org/1999/xlink">
<g id="graph0" class="graph" transform="scale(1 1) rotate(0) translate(4 534)">
<title>G</title>
<polygon fill="#ffffff" stroke="transparent" points="-4,4 -4,-534 1447.5623,-534 1447.5623,4 -4,4"/>
<!-- A -->
<g id="node1" class="node">
<title>A</title>
<ellipse fill="none" stroke="#000000" cx="258.2832" cy="-512" rx="86.3847" ry="18"/>
<text text-anchor="middle" x="258.2832" y="-508.3" font-family="Times,serif" font-size="14.00" fill="#000000">New function needed</text>
</g>
<!-- B -->
<g id="node2" class="node">
<title>B</title>
<polygon fill="none" stroke="#000000" points="258.2832,-457 .2166,-439 258.2832,-421 516.3498,-439 258.2832,-457"/>
<text text-anchor="middle" x="258.2832" y="-435.3" font-family="Times,serif" font-size="14.00" fill="#000000">Is it useful for data of any type and dimensions?</text>
</g>
<!-- A&#45;&gt;B -->
<g id="edge1" class="edge">
<title>A&#45;&gt;B</title>
<path fill="none" stroke="#000000" d="M258.2832,-493.9551C258.2832,-485.8828 258.2832,-476.1764 258.2832,-467.1817"/>
<polygon fill="#000000" stroke="#000000" points="261.7833,-467.0903 258.2832,-457.0904 254.7833,-467.0904 261.7833,-467.0903"/>
</g>
<!-- C -->
<g id="node3" class="node">
<title>C</title>
<ellipse fill="none" stroke="#000000" cx="236.2832" cy="-352" rx="106.6812" ry="18"/>
<text text-anchor="middle" x="236.2832" y="-348.3" font-family="Times,serif" font-size="14.00" fill="#000000">Contribute it to BaseSignal</text>
</g>
<!-- B&#45;&gt;C -->
<g id="edge2" class="edge">
<title>B&#45;&gt;C</title>
<path fill="none" stroke="#000000" d="M253.7248,-420.9735C250.716,-409.0751 246.7144,-393.2508 243.3031,-379.7606"/>
<polygon fill="#000000" stroke="#000000" points="246.6806,-378.8401 240.8358,-370.0034 239.8942,-380.5563 246.6806,-378.8401"/>
<text text-anchor="middle" x="260.2832" y="-391.8" font-family="Times,serif" font-size="14.00" fill="#000000">Yes</text>
</g>
<!-- D -->
<g id="node4" class="node">
<title>D</title>
<polygon fill="none" stroke="#000000" points="698.2832,-370 361.1217,-352 698.2832,-334 1035.4447,-352 698.2832,-370"/>
<text text-anchor="middle" x="698.2832" y="-348.3" font-family="Times,serif" font-size="14.00" fill="#000000">Does an SignalxD for the required dimension exist in HyperSpy</text>
</g>
<!-- B&#45;&gt;D -->
<g id="edge3" class="edge">
<title>B&#45;&gt;D</title>
<path fill="none" stroke="#000000" d="M325.5887,-425.6919C403.7792,-410.2315 532.7476,-384.7309 616.6044,-368.1501"/>
<polygon fill="#000000" stroke="#000000" points="617.4696,-371.5469 626.6007,-366.1736 616.1117,-364.6798 617.4696,-371.5469"/>
<text text-anchor="middle" x="513.7832" y="-391.8" font-family="Times,serif" font-size="14.00" fill="#000000">No</text>
</g>
<!-- E -->
<g id="node5" class="node">
<title>E</title>
<ellipse fill="none" stroke="#000000" cx="568.2832" cy="-265" rx="148.3739" ry="18"/>
<text text-anchor="middle" x="568.2832" y="-261.3" font-family="Times,serif" font-size="14.00" fill="#000000">Contribute new SignalxD to HyperSpy</text>
</g>
<!-- D&#45;&gt;E -->
<g id="edge5" class="edge">
<title>D&#45;&gt;E</title>
<path fill="none" stroke="#000000" d="M673.2179,-335.2255C653.4166,-321.9739 625.5425,-303.3197 603.4992,-288.5676"/>
<polygon fill="#000000" stroke="#000000" points="605.3189,-285.574 595.0616,-282.921 601.4257,-291.3915 605.3189,-285.574"/>
<text text-anchor="middle" x="649.7832" y="-304.8" font-family="Times,serif" font-size="14.00" fill="#000000">No</text>
</g>
<!-- F -->
<g id="node6" class="node">
<title>F</title>
<polygon fill="none" stroke="#000000" points="660.2832,-210 399.2019,-192 660.2832,-174 921.3645,-192 660.2832,-210"/>
<text text-anchor="middle" x="660.2832" y="-188.3" font-family="Times,serif" font-size="14.00" fill="#000000">Is the function useful only for some sort of data?</text>
</g>
<!-- D&#45;&gt;F -->
<g id="edge4" class="edge">
<title>D&#45;&gt;F</title>
<path fill="none" stroke="#000000" d="M709.9352,-334.2401C722.4222,-312.8057 738.7462,-276.0276 725.2832,-247 719.2273,-233.9428 708.3751,-222.8617 697.2512,-214.1424"/>
<polygon fill="#000000" stroke="#000000" points="699.3022,-211.3062 689.1679,-208.2163 695.1634,-216.9516 699.3022,-211.3062"/>
<text text-anchor="middle" x="742.2832" y="-261.3" font-family="Times,serif" font-size="14.00" fill="#000000">Yes</text>
</g>
<!-- E&#45;&gt;F -->
<g id="edge6" class="edge">
<title>E&#45;&gt;F</title>
<path fill="none" stroke="#000000" d="M591.0248,-246.9551C603.1593,-237.3266 618.2241,-225.373 631.2016,-215.0756"/>
<polygon fill="#000000" stroke="#000000" points="633.7184,-217.5466 639.3764,-208.5891 629.3673,-212.0631 633.7184,-217.5466"/>
</g>
<!-- G -->
<g id="node7" class="node">
<title>G</title>
<ellipse fill="none" stroke="#000000" cx="640.2832" cy="-105" rx="100.9827" ry="18"/>
<text text-anchor="middle" x="640.2832" y="-101.3" font-family="Times,serif" font-size="14.00" fill="#000000">Contribute it to SignalxD</text>
</g>
<!-- F&#45;&gt;G -->
<g id="edge8" class="edge">
<title>F&#45;&gt;G</title>
<path fill="none" stroke="#000000" d="M656.1392,-173.9735C653.4039,-162.0751 649.7661,-146.2508 646.6649,-132.7606"/>
<polygon fill="#000000" stroke="#000000" points="650.0734,-131.965 644.4219,-123.0034 643.2514,-133.5333 650.0734,-131.965"/>
<text text-anchor="middle" x="660.7832" y="-144.8" font-family="Times,serif" font-size="14.00" fill="#000000">No</text>
</g>
<!-- H -->
<g id="node8" class="node">
<title>H</title>
<polygon fill="none" stroke="#000000" points="985.2832,-123 759.0578,-105 985.2832,-87 1211.5086,-105 985.2832,-123"/>
<text text-anchor="middle" x="985.2832" y="-101.3" font-family="Times,serif" font-size="14.00" fill="#000000">Does an signal for that sort of data exists?</text>
</g>
<!-- F&#45;&gt;H -->
<g id="edge7" class="edge">
<title>F&#45;&gt;H</title>
<path fill="none" stroke="#000000" d="M713.9503,-177.6337C771.5898,-162.2041 863.0392,-137.7238 923.6019,-121.5116"/>
<polygon fill="#000000" stroke="#000000" points="924.6634,-124.8508 933.4182,-118.8839 922.8532,-118.0889 924.6634,-124.8508"/>
<text text-anchor="middle" x="852.2832" y="-144.8" font-family="Times,serif" font-size="14.00" fill="#000000">Yes</text>
</g>
<!-- I -->
<g id="node9" class="node">
<title>I</title>
<ellipse fill="none" stroke="#000000" cx="762.2832" cy="-18" rx="192.2659" ry="18"/>
<text text-anchor="middle" x="762.2832" y="-14.3" font-family="Times,serif" font-size="14.00" fill="#000000">Contribute to package providing the relevant signal</text>
</g>
<!-- H&#45;&gt;I -->
<g id="edge9" class="edge">
<title>H&#45;&gt;I</title>
<path fill="none" stroke="#000000" d="M946.9481,-90.0442C911.0939,-76.0562 857.1683,-55.018 816.8339,-39.2821"/>
<polygon fill="#000000" stroke="#000000" points="817.9999,-35.9801 807.4116,-35.6062 815.4556,-42.5014 817.9999,-35.9801"/>
<text text-anchor="middle" x="897.2832" y="-57.8" font-family="Times,serif" font-size="14.00" fill="#000000">Yes</text>
</g>
<!-- J -->
<g id="node10" class="node">
<title>J</title>
<ellipse fill="none" stroke="#000000" cx="1208.2832" cy="-18" rx="235.0585" ry="18"/>
<text text-anchor="middle" x="1208.2832" y="-14.3" font-family="Times,serif" font-size="14.00" fill="#000000">Create you own package and signal subclass to host the funtion</text>
</g>
<!-- H&#45;&gt;J -->
<g id="edge10" class="edge">
<title>H&#45;&gt;J</title>
<path fill="none" stroke="#000000" d="M1023.6183,-90.0442C1059.3572,-76.1012 1113.0514,-55.1532 1153.343,-39.4341"/>
<polygon fill="#000000" stroke="#000000" points="1154.7147,-42.6559 1162.7587,-35.7607 1152.1705,-36.1346 1154.7147,-42.6559"/>
<text text-anchor="middle" x="1117.7832" y="-57.8" font-family="Times,serif" font-size="14.00" fill="#000000">No</text>
</g>
</g>
</svg>
