<?xml version="1.0" encoding="UTF-8" standalone="no"?>
<!DOCTYPE svg PUBLIC "-//W3C//DTD SVG 1.1//EN"
 "http://www.w3.org/Graphics/SVG/1.1/DTD/svg11.dtd">
<!-- Generated by graphviz version 2.42.3 (20191010.1750)
 -->
<!-- Title: G Pages: 1 -->
<svg width="979pt" height="559pt"
 viewBox="0.00 0.00 979.48 559.00" xmlns="http://www.w3.org/2000/svg" xmlns:xlink="http://www.w3.org/1999/xlink">
<g id="graph0" class="graph" transform="scale(1 1) rotate(0) translate(4 555)">
<title>G</title>
<polygon fill="white" stroke="transparent" points="-4,4 -4,-555 975.48,-555 975.48,4 -4,4"/>
<!-- A -->
<g id="node1" class="node">
<title>A</title>
<ellipse fill="none" stroke="black" cx="415.94" cy="-533" rx="99.38" ry="18"/>
<text text-anchor="middle" x="415.94" y="-529.3" font-family="Times,serif" font-size="14.00">New component needed!</text>
</g>
<!-- B -->
<g id="node2" class="node">
<title>B</title>
<polygon fill="none" stroke="black" points="415.94,-478 215.69,-460 415.94,-442 616.2,-460 415.94,-478"/>
<text text-anchor="middle" x="415.94" y="-456.3" font-family="Times,serif" font-size="14.00">Can it be declared using Expression?</text>
</g>
<!-- A&#45;&gt;B -->
<g id="edge1" class="edge">
<title>A&#45;&gt;B</title>
<path fill="none" stroke="black" d="M415.94,-514.81C415.94,-506.79 415.94,-497.05 415.94,-488.07"/>
<polygon fill="black" stroke="black" points="419.44,-488.03 415.94,-478.03 412.44,-488.03 419.44,-488.03"/>
</g>
<!-- C -->
<g id="node3" class="node">
<title>C</title>
<polygon fill="none" stroke="black" points="316.94,-391 146.02,-373 316.94,-355 487.87,-373 316.94,-391"/>
<text text-anchor="middle" x="316.94" y="-369.3" font-family="Times,serif" font-size="14.00">Can it be useful to other users?</text>
</g>
<!-- B&#45;&gt;C -->
<g id="edge2" class="edge">
<title>B&#45;&gt;C</title>
<path fill="none" stroke="black" d="M397.78,-443.41C382.34,-430.15 359.97,-410.95 342.68,-396.1"/>
<polygon fill="black" stroke="black" points="344.52,-393.06 334.65,-389.21 339.96,-398.38 344.52,-393.06"/>
<text text-anchor="middle" x="383.94" y="-412.8" font-family="Times,serif" font-size="14.00">Yes</text>
</g>
<!-- F -->
<g id="node6" class="node">
<title>F</title>
<ellipse fill="none" stroke="black" cx="515.94" cy="-319" rx="139.98" ry="18"/>
<text text-anchor="middle" x="515.94" y="-315.3" font-family="Times,serif" font-size="14.00">Create new component from scratch</text>
</g>
<!-- B&#45;&gt;F -->
<g id="edge3" class="edge">
<title>B&#45;&gt;F</title>
<path fill="none" stroke="black" d="M440.73,-444.15C458.89,-432.03 482.74,-413.3 496.94,-391 505.3,-377.88 510,-361.15 512.64,-347.23"/>
<polygon fill="black" stroke="black" points="516.12,-347.67 514.28,-337.23 509.21,-346.54 516.12,-347.67"/>
<text text-anchor="middle" x="490.44" y="-412.8" font-family="Times,serif" font-size="14.00">No</text>
</g>
<!-- D -->
<g id="node4" class="node">
<title>D</title>
<ellipse fill="none" stroke="black" cx="79.94" cy="-265" rx="79.89" ry="18"/>
<text text-anchor="middle" x="79.94" y="-261.3" font-family="Times,serif" font-size="14.00">Just use Expression</text>
</g>
<!-- C&#45;&gt;D -->
<g id="edge5" class="edge">
<title>C&#45;&gt;D</title>
<path fill="none" stroke="black" d="M285.96,-358.14C244.52,-339.61 170.83,-306.65 123.73,-285.58"/>
<polygon fill="black" stroke="black" points="124.95,-282.3 114.39,-281.41 122.09,-288.69 124.95,-282.3"/>
<text text-anchor="middle" x="242.44" y="-315.3" font-family="Times,serif" font-size="14.00">No</text>
</g>
<!-- E -->
<g id="node5" class="node">
<title>E</title>
<ellipse fill="none" stroke="black" cx="332.94" cy="-265" rx="155.17" ry="18"/>
<text text-anchor="middle" x="332.94" y="-261.3" font-family="Times,serif" font-size="14.00">Create new component using Expression</text>
</g>
<!-- C&#45;&gt;E -->
<g id="edge4" class="edge">
<title>C&#45;&gt;E</title>
<path fill="none" stroke="black" d="M319.51,-354.97C322.02,-338.38 325.87,-312.88 328.8,-293.43"/>
<polygon fill="black" stroke="black" points="332.29,-293.75 330.33,-283.34 325.37,-292.71 332.29,-293.75"/>
<text text-anchor="middle" x="338.94" y="-315.3" font-family="Times,serif" font-size="14.00">Yes</text>
</g>
<!-- G -->
<g id="node7" class="node">
<title>G</title>
<polygon fill="none" stroke="black" points="423.94,-210 263.24,-192 423.94,-174 584.65,-192 423.94,-210"/>
<text text-anchor="middle" x="423.94" y="-188.3" font-family="Times,serif" font-size="14.00">Is it useful for general users?</text>
</g>
<!-- E&#45;&gt;G -->
<g id="edge6" class="edge">
<title>E&#45;&gt;G</title>
<path fill="none" stroke="black" d="M354.51,-247.17C367.13,-237.33 383.19,-224.8 396.68,-214.27"/>
<polygon fill="black" stroke="black" points="398.97,-216.93 404.7,-208.02 394.66,-211.41 398.97,-216.93"/>
</g>
<!-- F&#45;&gt;G -->
<g id="edge7" class="edge">
<title>F&#45;&gt;G</title>
<path fill="none" stroke="black" d="M514.56,-300.9C512.63,-285.64 508,-263.24 496.94,-247 487.48,-233.1 473.24,-221.41 459.83,-212.5"/>
<polygon fill="black" stroke="black" points="461.53,-209.44 451.21,-207.06 457.79,-215.35 461.53,-209.44"/>
</g>
<!-- H -->
<g id="node8" class="node">
<title>H</title>
<ellipse fill="none" stroke="black" cx="401.94" cy="-105" rx="102.88" ry="18"/>
<text text-anchor="middle" x="401.94" y="-101.3" font-family="Times,serif" font-size="14.00">Contribute it to HyperSpy</text>
</g>
<!-- G&#45;&gt;H -->
<g id="edge8" class="edge">
<title>G&#45;&gt;H</title>
<path fill="none" stroke="black" d="M419.6,-174.21C416.54,-162.41 412.39,-146.38 408.89,-132.82"/>
<polygon fill="black" stroke="black" points="412.25,-131.85 406.36,-123.05 405.47,-133.61 412.25,-131.85"/>
<text text-anchor="middle" x="425.94" y="-144.8" font-family="Times,serif" font-size="14.00">Yes</text>
</g>
<!-- I -->
<g id="node9" class="node">
<title>I</title>
<polygon fill="none" stroke="black" points="690.94,-123 522.53,-105 690.94,-87 859.35,-105 690.94,-123"/>
<text text-anchor="middle" x="690.94" y="-101.3" font-family="Times,serif" font-size="14.00">Does a suitable package exist?</text>
</g>
<!-- G&#45;&gt;I -->
<g id="edge9" class="edge">
<title>G&#45;&gt;I</title>
<path fill="none" stroke="black" d="M463.63,-178.37C510.85,-163.33 589.73,-138.22 641.04,-121.89"/>
<polygon fill="black" stroke="black" points="642.14,-125.21 650.6,-118.84 640.01,-118.54 642.14,-125.21"/>
<text text-anchor="middle" x="582.44" y="-144.8" font-family="Times,serif" font-size="14.00">No</text>
</g>
<!-- J -->
<g id="node10" class="node">
<title>J</title>
<ellipse fill="none" stroke="black" cx="544.94" cy="-18" rx="139.98" ry="18"/>
<text text-anchor="middle" x="544.94" y="-14.3" font-family="Times,serif" font-size="14.00">Contribute it to the relevant package</text>
</g>
<!-- I&#45;&gt;J -->
<g id="edge10" class="edge">
<title>I&#45;&gt;J</title>
<path fill="none" stroke="black" d="M666.18,-89.58C643.25,-76.23 608.84,-56.2 582.53,-40.88"/>
<polygon fill="black" stroke="black" points="584,-37.69 573.59,-35.68 580.47,-43.74 584,-37.69"/>
<text text-anchor="middle" x="637.94" y="-57.8" font-family="Times,serif" font-size="14.00">Yes</text>
</g>
<!-- K -->
<g id="node11" class="node">
<title>K</title>
<ellipse fill="none" stroke="black" cx="836.94" cy="-18" rx="134.58" ry="18"/>
<text text-anchor="middle" x="836.94" y="-14.3" font-family="Times,serif" font-size="14.00">Create your own package to host it</text>
</g>
<!-- I&#45;&gt;K -->
<g id="edge11" class="edge">
<title>I&#45;&gt;K</title>
<path fill="none" stroke="black" d="M715.71,-89.58C738.63,-76.23 773.05,-56.2 799.36,-40.88"/>
<polygon fill="black" stroke="black" points="801.41,-43.74 808.29,-35.68 797.89,-37.69 801.41,-43.74"/>
<text text-anchor="middle" x="780.44" y="-57.8" font-family="Times,serif" font-size="14.00">No</text>
</g>
</g>
</svg>
