<?xml version="1.0" encoding="UTF-8" standalone="no"?>
<!DOCTYPE svg PUBLIC "-//W3C//DTD SVG 1.1//EN"
 "http://www.w3.org/Graphics/SVG/1.1/DTD/svg11.dtd">
<!-- Generated by graphviz version 2.40.1 (20161225.0304)
 -->
<!-- Title: G Pages: 1 -->
<svg width="1440pt" height="538pt"
 viewBox="0.00 0.00 1439.56 538.00" xmlns="http://www.w3.org/2000/svg" xmlns:xlink="http://www.w3.org/1999/xlink">
<g id="graph0" class="graph" transform="scale(1 1) rotate(0) translate(4 534)">
<title>G</title>
<polygon fill="#ffffff" stroke="transparent" points="-4,4 -4,-534 1435.5623,-534 1435.5623,4 -4,4"/>
<!-- A -->
<g id="node1" class="node">
<title>A</title>
<ellipse fill="none" stroke="#000000" cx="258.2832" cy="-512" rx="89.0842" ry="18"/>
<text text-anchor="middle" x="258.2832" y="-508.3" font-family="Times,serif" font-size="14.00" fill="#000000">New function needed!</text>
</g>
<!-- B -->
<g id="node2" class="node">
<title>B</title>
<polygon fill="none" stroke="#000000" points="258.2832,-457 .2166,-439 258.2832,-421 516.3498,-439 258.2832,-457"/>
<text text-anchor="middle" x="258.2832" y="-435.3" font-family="Times,serif" font-size="14.00" fill="#000000">Is it useful for data of any type and dimensions?</text>
</g>
<!-- A&#45;&gt;B -->
<g id="edge1" class="edge">
<title>A&#45;&gt;B</title>
<path fill="none" stroke="#000000" d="M258.2832,-493.9551C258.2832,-485.8828 258.2832,-476.1764 258.2832,-467.1817"/>
<polygon fill="#000000" stroke="#000000" points="261.7833,-467.0903 258.2832,-457.0904 254.7833,-467.0904 261.7833,-467.0903"/>
</g>
<!-- C -->
<g id="node3" class="node">
<title>C</title>
<ellipse fill="none" stroke="#000000" cx="236.2832" cy="-352" rx="106.6812" ry="18"/>
<text text-anchor="middle" x="236.2832" y="-348.3" font-family="Times,serif" font-size="14.00" fill="#000000">Contribute it to BaseSignal</text>
</g>
<!-- B&#45;&gt;C -->
<g id="edge2" class="edge">
<title>B&#45;&gt;C</title>
<path fill="none" stroke="#000000" d="M253.7248,-420.9735C250.716,-409.0751 246.7144,-393.2508 243.3031,-379.7606"/>
<polygon fill="#000000" stroke="#000000" points="246.6806,-378.8401 240.8358,-370.0034 239.8942,-380.5563 246.6806,-378.8401"/>
<text text-anchor="middle" x="260.2832" y="-391.8" font-family="Times,serif" font-size="14.00" fill="#000000">Yes</text>
</g>
<!-- D -->
<g id="node4" class="node">
<title>D</title>
<polygon fill="none" stroke="#000000" points="697.2832,-370 360.9601,-352 697.2832,-334 1033.6063,-352 697.2832,-370"/>
<text text-anchor="middle" x="697.2832" y="-348.3" font-family="Times,serif" font-size="14.00" fill="#000000">Does a SignalxD for the required dimension exist in HyperSpy?</text>
</g>
<!-- B&#45;&gt;D -->
<g id="edge3" class="edge">
<title>B&#45;&gt;D</title>
<path fill="none" stroke="#000000" d="M325.9149,-425.5969C403.9174,-410.1385 532.1072,-384.7342 615.6068,-368.1864"/>
<polygon fill="#000000" stroke="#000000" points="616.4329,-371.5909 625.5617,-366.2136 615.0721,-364.7244 616.4329,-371.5909"/>
<text text-anchor="middle" x="512.7832" y="-391.8" font-family="Times,serif" font-size="14.00" fill="#000000">No</text>
</g>
<!-- E -->
<g id="node5" class="node">
<title>E</title>
<ellipse fill="none" stroke="#000000" cx="567.2832" cy="-265" rx="148.3739" ry="18"/>
<text text-anchor="middle" x="567.2832" y="-261.3" font-family="Times,serif" font-size="14.00" fill="#000000">Contribute new SignalxD to HyperSpy</text>
</g>
<!-- D&#45;&gt;E -->
<g id="edge5" class="edge">
<title>D&#45;&gt;E</title>
<path fill="none" stroke="#000000" d="M672.2179,-335.2255C652.4166,-321.9739 624.5425,-303.3197 602.4992,-288.5676"/>
<polygon fill="#000000" stroke="#000000" points="604.3189,-285.574 594.0616,-282.921 600.4257,-291.3915 604.3189,-285.574"/>
<text text-anchor="middle" x="648.7832" y="-304.8" font-family="Times,serif" font-size="14.00" fill="#000000">No</text>
</g>
<!-- F -->
<g id="node6" class="node">
<title>F</title>
<polygon fill="none" stroke="#000000" points="659.2832,-210 375.244,-192 659.2832,-174 943.3224,-192 659.2832,-210"/>
<text text-anchor="middle" x="659.2832" y="-188.3" font-family="Times,serif" font-size="14.00" fill="#000000">Is the function useful for a specific type of data only?</text>
</g>
<!-- D&#45;&gt;F -->
<g id="edge4" class="edge">
<title>D&#45;&gt;F</title>
<path fill="none" stroke="#000000" d="M708.9352,-334.2401C721.4222,-312.8057 737.7462,-276.0276 724.2832,-247 718.2273,-233.9428 707.3751,-222.8617 696.2512,-214.1424"/>
<polygon fill="#000000" stroke="#000000" points="698.3022,-211.3062 688.1679,-208.2163 694.1634,-216.9516 698.3022,-211.3062"/>
<text text-anchor="middle" x="741.2832" y="-261.3" font-family="Times,serif" font-size="14.00" fill="#000000">Yes</text>
</g>
<!-- E&#45;&gt;F -->
<g id="edge6" class="edge">
<title>E&#45;&gt;F</title>
<path fill="none" stroke="#000000" d="M590.0248,-246.9551C602.072,-237.3958 617.0075,-225.5449 629.9211,-215.2981"/>
<polygon fill="#000000" stroke="#000000" points="632.4066,-217.794 638.0646,-208.8365 628.0555,-212.3105 632.4066,-217.794"/>
</g>
<!-- G -->
<g id="node7" class="node">
<title>G</title>
<ellipse fill="none" stroke="#000000" cx="639.2832" cy="-105" rx="100.9827" ry="18"/>
<text text-anchor="middle" x="639.2832" y="-101.3" font-family="Times,serif" font-size="14.00" fill="#000000">Contribute it to SignalxD</text>
</g>
<!-- F&#45;&gt;G -->
<g id="edge8" class="edge">
<title>F&#45;&gt;G</title>
<path fill="none" stroke="#000000" d="M655.1392,-173.9735C652.4039,-162.0751 648.7661,-146.2508 645.6649,-132.7606"/>
<polygon fill="#000000" stroke="#000000" points="649.0734,-131.965 643.4219,-123.0034 642.2514,-133.5333 649.0734,-131.965"/>
<text text-anchor="middle" x="659.7832" y="-144.8" font-family="Times,serif" font-size="14.00" fill="#000000">No</text>
</g>
<!-- H -->
<g id="node8" class="node">
<title>H</title>
<polygon fill="none" stroke="#000000" points="973.2832,-123 758.1176,-105 973.2832,-87 1188.4488,-105 973.2832,-123"/>
<text text-anchor="middle" x="973.2832" y="-101.3" font-family="Times,serif" font-size="14.00" fill="#000000">Does a signal for that sort of data exist?</text>
</g>
<!-- F&#45;&gt;H -->
<g id="edge7" class="edge">
<title>F&#45;&gt;H</title>
<path fill="none" stroke="#000000" d="M712.1939,-177.34C767.8738,-161.9128 855.3435,-137.6776 913.4872,-121.5677"/>
<polygon fill="#000000" stroke="#000000" points="914.5697,-124.8997 923.272,-118.8566 912.7005,-118.1538 914.5697,-124.8997"/>
<text text-anchor="middle" x="845.2832" y="-144.8" font-family="Times,serif" font-size="14.00" fill="#000000">Yes</text>
</g>
<!-- I -->
<g id="node9" class="node">
<title>I</title>
<ellipse fill="none" stroke="#000000" cx="750.2832" cy="-18" rx="192.2659" ry="18"/>
<text text-anchor="middle" x="750.2832" y="-14.3" font-family="Times,serif" font-size="14.00" fill="#000000">Contribute to package providing the relevant signal</text>
</g>
<!-- H&#45;&gt;I -->
<g id="edge9" class="edge">
<title>H&#45;&gt;I</title>
<path fill="none" stroke="#000000" d="M935.2015,-90.143C899.3853,-76.1699 845.3748,-55.0985 804.9589,-39.3309"/>
<polygon fill="#000000" stroke="#000000" points="806.1053,-36.0213 795.5171,-35.6473 803.5611,-42.5425 806.1053,-36.0213"/>
<text text-anchor="middle" x="885.2832" y="-57.8" font-family="Times,serif" font-size="14.00" fill="#000000">Yes</text>
</g>
<!-- J -->
<g id="node10" class="node">
<title>J</title>
<ellipse fill="none" stroke="#000000" cx="1196.2832" cy="-18" rx="235.0585" ry="18"/>
<text text-anchor="middle" x="1196.2832" y="-14.3" font-family="Times,serif" font-size="14.00" fill="#000000">Create you own package and signal subclass to host the funtion</text>
</g>
<!-- H&#45;&gt;J -->
<g id="edge10" class="edge">
<title>H&#45;&gt;J</title>
<path fill="none" stroke="#000000" d="M1011.3649,-90.143C1047.0659,-76.2148 1100.8444,-55.234 1141.2172,-39.4831"/>
<polygon fill="#000000" stroke="#000000" points="1142.6084,-42.6974 1150.6524,-35.8021 1140.0642,-36.1761 1142.6084,-42.6974"/>
<text text-anchor="middle" x="1105.7832" y="-57.8" font-family="Times,serif" font-size="14.00" fill="#000000">No</text>
</g>
</g>
</svg>
