<?xml version="1.0" encoding="UTF-8" standalone="no"?>
<!DOCTYPE svg PUBLIC "-//W3C//DTD SVG 1.1//EN"
 "http://www.w3.org/Graphics/SVG/1.1/DTD/svg11.dtd">
<!-- Generated by graphviz version 2.43.0 (0)
 -->
<!-- Title: G Pages: 1 -->
<svg width="1250pt" height="559pt"
 viewBox="0.00 0.00 1250.23 559.00" xmlns="http://www.w3.org/2000/svg" xmlns:xlink="http://www.w3.org/1999/xlink">
<g id="graph0" class="graph" transform="scale(1 1) rotate(0) translate(4 555)">
<title>G</title>
<polygon fill="white" stroke="transparent" points="-4,4 -4,-555 1246.23,-555 1246.23,4 -4,4"/>
<!-- A -->
<g id="node1" class="node">
<title>A</title>
<ellipse fill="none" stroke="black" cx="528.69" cy="-533" rx="126.18" ry="18"/>
<text text-anchor="middle" x="528.69" y="-529.3" font-family="Times,serif" font-size="14.00">New component needed!</text>
</g>
<!-- B -->
<g id="node2" class="node">
<title>B</title>
<polygon fill="none" stroke="black" points="528.69,-478 269.29,-460 528.69,-442 788.1,-460 528.69,-478"/>
<text text-anchor="middle" x="528.69" y="-456.3" font-family="Times,serif" font-size="14.00">Can it be declared using Expression?</text>
</g>
<!-- A&#45;&gt;B -->
<g id="edge1" class="edge">
<title>A&#45;&gt;B</title>
<path fill="none" stroke="black" d="M528.69,-514.81C528.69,-506.79 528.69,-497.05 528.69,-488.07"/>
<polygon fill="black" stroke="black" points="532.19,-488.03 528.69,-478.03 525.19,-488.03 532.19,-488.03"/>
</g>
<!-- C -->
<g id="node3" class="node">
<title>C</title>
<polygon fill="none" stroke="black" points="403.69,-391 181.32,-373 403.69,-355 626.06,-373 403.69,-391"/>
<text text-anchor="middle" x="403.69" y="-369.3" font-family="Times,serif" font-size="14.00">Can it be useful to other users?</text>
</g>
<!-- B&#45;&gt;C -->
<g id="edge2" class="edge">
<title>B&#45;&gt;C</title>
<path fill="none" stroke="black" d="M505.76,-443.41C485.73,-429.79 456.48,-409.89 434.42,-394.89"/>
<polygon fill="black" stroke="black" points="436.29,-391.93 426.05,-389.21 432.35,-397.72 436.29,-391.93"/>
<text text-anchor="middle" x="486.19" y="-412.8" font-family="Times,serif" font-size="14.00">Yes</text>
</g>
<!-- F -->
<g id="node6" class="node">
<title>F</title>
<ellipse fill="none" stroke="black" cx="653.69" cy="-319" rx="180.07" ry="18"/>
<text text-anchor="middle" x="653.69" y="-315.3" font-family="Times,serif" font-size="14.00">Create new component from scratch</text>
</g>
<!-- B&#45;&gt;F -->
<g id="edge3" class="edge">
<title>B&#45;&gt;F</title>
<path fill="none" stroke="black" d="M564.4,-444.38C587.69,-433.09 616.96,-415.27 634.69,-391 643.93,-378.36 648.68,-361.52 651.11,-347.41"/>
<polygon fill="black" stroke="black" points="654.61,-347.67 652.57,-337.28 647.68,-346.68 654.61,-347.67"/>
<text text-anchor="middle" x="627.19" y="-412.8" font-family="Times,serif" font-size="14.00">No</text>
</g>
<!-- D -->
<g id="node4" class="node">
<title>D</title>
<ellipse fill="none" stroke="black" cx="102.69" cy="-265" rx="102.88" ry="18"/>
<text text-anchor="middle" x="102.69" y="-261.3" font-family="Times,serif" font-size="14.00">Just use Expression</text>
</g>
<!-- C&#45;&gt;D -->
<g id="edge5" class="edge">
<title>C&#45;&gt;D</title>
<path fill="none" stroke="black" d="M364.34,-358.14C311.05,-339.38 215.77,-305.82 156.07,-284.8"/>
<polygon fill="black" stroke="black" points="157.04,-281.43 146.44,-281.41 154.71,-288.03 157.04,-281.43"/>
<text text-anchor="middle" x="309.19" y="-315.3" font-family="Times,serif" font-size="14.00">No</text>
</g>
<!-- E -->
<g id="node5" class="node">
<title>E</title>
<ellipse fill="none" stroke="black" cx="424.69" cy="-265" rx="200.66" ry="18"/>
<text text-anchor="middle" x="424.69" y="-261.3" font-family="Times,serif" font-size="14.00">Create new component using Expression</text>
</g>
<!-- C&#45;&gt;E -->
<g id="edge4" class="edge">
<title>C&#45;&gt;E</title>
<path fill="none" stroke="black" d="M407.06,-354.97C410.37,-338.3 415.45,-312.65 419.31,-293.16"/>
<polygon fill="black" stroke="black" points="422.75,-293.83 421.26,-283.34 415.88,-292.47 422.75,-293.83"/>
<text text-anchor="middle" x="430.19" y="-315.3" font-family="Times,serif" font-size="14.00">Yes</text>
</g>
<!-- G -->
<g id="node7" class="node">
<title>G</title>
<polygon fill="none" stroke="black" points="538.69,-210 329.89,-192 538.69,-174 747.49,-192 538.69,-210"/>
<text text-anchor="middle" x="538.69" y="-188.3" font-family="Times,serif" font-size="14.00">Is it useful for general users?</text>
</g>
<!-- E&#45;&gt;G -->
<g id="edge6" class="edge">
<title>E&#45;&gt;G</title>
<path fill="none" stroke="black" d="M452,-246.99C468.26,-236.86 489.01,-223.94 506.12,-213.28"/>
<polygon fill="black" stroke="black" points="508.06,-216.2 514.7,-207.94 504.36,-210.26 508.06,-216.2"/>
</g>
<!-- F&#45;&gt;G -->
<g id="edge7" class="edge">
<title>F&#45;&gt;G</title>
<path fill="none" stroke="black" d="M652.81,-300.86C651.22,-285.36 646.82,-262.63 634.69,-247 622.62,-231.45 604.74,-219.67 587.67,-211.15"/>
<polygon fill="black" stroke="black" points="588.85,-207.84 578.31,-206.75 585.87,-214.17 588.85,-207.84"/>
</g>
<!-- H -->
<g id="node8" class="node">
<title>H</title>
<ellipse fill="none" stroke="black" cx="514.69" cy="-105" rx="131.88" ry="18"/>
<text text-anchor="middle" x="514.69" y="-101.3" font-family="Times,serif" font-size="14.00">Contribute it to HyperSpy</text>
</g>
<!-- G&#45;&gt;H -->
<g id="edge8" class="edge">
<title>G&#45;&gt;H</title>
<path fill="none" stroke="black" d="M533.95,-174.21C530.62,-162.41 526.09,-146.38 522.26,-132.82"/>
<polygon fill="black" stroke="black" points="525.59,-131.72 519.5,-123.05 518.85,-133.62 525.59,-131.72"/>
<text text-anchor="middle" x="541.19" y="-144.8" font-family="Times,serif" font-size="14.00">Yes</text>
</g>
<!-- I -->
<g id="node9" class="node">
<title>I</title>
<polygon fill="none" stroke="black" points="881.69,-123 664.85,-105 881.69,-87 1098.53,-105 881.69,-123"/>
<text text-anchor="middle" x="881.69" y="-101.3" font-family="Times,serif" font-size="14.00">Does a suitable package exist?</text>
</g>
<!-- G&#45;&gt;I -->
<g id="edge9" class="edge">
<title>G&#45;&gt;I</title>
<path fill="none" stroke="black" d="M589.67,-178.37C651.18,-163.12 754.5,-137.52 820.32,-121.21"/>
<polygon fill="black" stroke="black" points="821.29,-124.58 830.15,-118.77 819.6,-117.78 821.29,-124.58"/>
<text text-anchor="middle" x="742.19" y="-144.8" font-family="Times,serif" font-size="14.00">No</text>
</g>
<!-- J -->
<g id="node10" class="node">
<title>J</title>
<ellipse fill="none" stroke="black" cx="693.69" cy="-18" rx="183.07" ry="18"/>
<text text-anchor="middle" x="693.69" y="-14.3" font-family="Times,serif" font-size="14.00">Contribute it to the relevant package</text>
</g>
<!-- I&#45;&gt;J -->
<g id="edge10" class="edge">
<title>I&#45;&gt;J</title>
<path fill="none" stroke="black" d="M849.8,-89.58C819.64,-75.94 774.03,-55.32 739.89,-39.89"/>
<polygon fill="black" stroke="black" points="741.14,-36.61 730.58,-35.68 738.25,-42.99 741.14,-36.61"/>
<text text-anchor="middle" x="812.19" y="-57.8" font-family="Times,serif" font-size="14.00">Yes</text>
</g>
<!-- K -->
<g id="node11" class="node">
<title>K</title>
<ellipse fill="none" stroke="black" cx="1068.69" cy="-18" rx="173.57" ry="18"/>
<text text-anchor="middle" x="1068.69" y="-14.3" font-family="Times,serif" font-size="14.00">Create your own package to host it</text>
</g>
<!-- I&#45;&gt;K -->
<g id="edge11" class="edge">
<title>I&#45;&gt;K</title>
<path fill="none" stroke="black" d="M913.41,-89.58C943.42,-75.94 988.78,-55.32 1022.74,-39.89"/>
<polygon fill="black" stroke="black" points="1024.34,-43 1031.99,-35.68 1021.44,-36.63 1024.34,-43"/>
<text text-anchor="middle" x="996.19" y="-57.8" font-family="Times,serif" font-size="14.00">No</text>
</g>
</g>
</svg>
