<?xml version="1.0" encoding="UTF-8" standalone="no"?>
<!DOCTYPE svg PUBLIC "-//W3C//DTD SVG 1.1//EN"
 "http://www.w3.org/Graphics/SVG/1.1/DTD/svg11.dtd">
<!-- Generated by graphviz version 2.40.1 (20161225.0304)
 -->
<!-- Title: G Pages: 1 -->
<svg width="979pt" height="559pt"
 viewBox="0.00 0.00 979.48 559.00" xmlns="http://www.w3.org/2000/svg" xmlns:xlink="http://www.w3.org/1999/xlink">
<g id="graph0" class="graph" transform="scale(1 1) rotate(0) translate(4 555)">
<title>G</title>
<polygon fill="#ffffff" stroke="transparent" points="-4,4 -4,-555 975.481,-555 975.481,4 -4,4"/>
<!-- A -->
<g id="node1" class="node">
<title>A</title>
<ellipse fill="none" stroke="#000000" cx="415.9429" cy="-533" rx="99.3824" ry="18"/>
<text text-anchor="middle" x="415.9429" y="-529.3" font-family="Times,serif" font-size="14.00" fill="#000000">New component needed!</text>
</g>
<!-- B -->
<g id="node2" class="node">
<title>B</title>
<polygon fill="none" stroke="#000000" points="415.9429,-478 215.6903,-460 415.9429,-442 616.1955,-460 415.9429,-478"/>
<text text-anchor="middle" x="415.9429" y="-456.3" font-family="Times,serif" font-size="14.00" fill="#000000">Can it be declared using Expression?</text>
</g>
<!-- A&#45;&gt;B -->
<g id="edge1" class="edge">
<title>A&#45;&gt;B</title>
<path fill="none" stroke="#000000" d="M415.9429,-514.9551C415.9429,-506.8828 415.9429,-497.1764 415.9429,-488.1817"/>
<polygon fill="#000000" stroke="#000000" points="419.443,-488.0903 415.9429,-478.0904 412.443,-488.0904 419.443,-488.0903"/>
</g>
<!-- C -->
<g id="node3" class="node">
<title>C</title>
<polygon fill="none" stroke="#000000" points="316.9429,-391 146.0164,-373 316.9429,-355 487.8694,-373 316.9429,-391"/>
<text text-anchor="middle" x="316.9429" y="-369.3" font-family="Times,serif" font-size="14.00" fill="#000000">Can it be useful to other users?</text>
</g>
<!-- B&#45;&gt;C -->
<g id="edge2" class="edge">
<title>B&#45;&gt;C</title>
<path fill="none" stroke="#000000" d="M397.3218,-443.636C382.1111,-430.2691 360.4237,-411.2104 343.409,-396.2581"/>
<polygon fill="#000000" stroke="#000000" points="345.3026,-393.2628 335.4806,-389.2907 340.6818,-398.5209 345.3026,-393.2628"/>
<text text-anchor="middle" x="383.9429" y="-412.8" font-family="Times,serif" font-size="14.00" fill="#000000">Yes</text>
</g>
<!-- F -->
<g id="node6" class="node">
<title>F</title>
<ellipse fill="none" stroke="#000000" cx="515.9429" cy="-319" rx="139.9756" ry="18"/>
<text text-anchor="middle" x="515.9429" y="-315.3" font-family="Times,serif" font-size="14.00" fill="#000000">Create new component from scratch</text>
</g>
<!-- B&#45;&gt;F -->
<g id="edge3" class="edge">
<title>B&#45;&gt;F</title>
<path fill="none" stroke="#000000" d="M441.8965,-444.0843C459.9081,-431.7389 483.0714,-413.0461 496.9429,-391 505.2273,-377.8336 509.9215,-361.1375 512.5703,-347.1387"/>
<polygon fill="#000000" stroke="#000000" points="516.0581,-347.4972 514.2226,-337.0626 509.1504,-346.3644 516.0581,-347.4972"/>
<text text-anchor="middle" x="490.4429" y="-412.8" font-family="Times,serif" font-size="14.00" fill="#000000">No</text>
</g>
<!-- D -->
<g id="node4" class="node">
<title>D</title>
<ellipse fill="none" stroke="#000000" cx="79.9429" cy="-265" rx="79.8859" ry="18"/>
<text text-anchor="middle" x="79.9429" y="-261.3" font-family="Times,serif" font-size="14.00" fill="#000000">Just use Expression</text>
</g>
<!-- C&#45;&gt;D -->
<g id="edge5" class="edge">
<title>C&#45;&gt;D</title>
<path fill="none" stroke="#000000" d="M284.486,-358.2095C243.0935,-339.3471 171.312,-306.6366 124.7332,-285.4108"/>
<polygon fill="#000000" stroke="#000000" points="126.0344,-282.1575 115.4833,-281.1956 123.1316,-288.5273 126.0344,-282.1575"/>
<text text-anchor="middle" x="242.4429" y="-315.3" font-family="Times,serif" font-size="14.00" fill="#000000">No</text>
</g>
<!-- E -->
<g id="node5" class="node">
<title>E</title>
<ellipse fill="none" stroke="#000000" cx="332.9429" cy="-265" rx="155.1726" ry="18"/>
<text text-anchor="middle" x="332.9429" y="-261.3" font-family="Times,serif" font-size="14.00" fill="#000000">Create new component using Expression</text>
</g>
<!-- C&#45;&gt;E -->
<g id="edge4" class="edge">
<title>C&#45;&gt;E</title>
<path fill="none" stroke="#000000" d="M319.585,-355.166C322.0828,-338.3054 325.8705,-312.739 328.7753,-293.131"/>
<polygon fill="#000000" stroke="#000000" points="332.2401,-293.6265 330.2434,-283.2215 325.3156,-292.6006 332.2401,-293.6265"/>
<text text-anchor="middle" x="338.9429" y="-315.3" font-family="Times,serif" font-size="14.00" fill="#000000">Yes</text>
</g>
<!-- G -->
<g id="node7" class="node">
<title>G</title>
<polygon fill="none" stroke="#000000" points="423.9429,-210 263.2377,-192 423.9429,-174 584.6481,-192 423.9429,-210"/>
<text text-anchor="middle" x="423.9429" y="-188.3" font-family="Times,serif" font-size="14.00" fill="#000000">Is it useful for general users?</text>
</g>
<!-- E&#45;&gt;G -->
<g id="edge6" class="edge">
<title>E&#45;&gt;G</title>
<path fill="none" stroke="#000000" d="M355.4373,-246.9551C367.8157,-237.0251 383.277,-224.6221 396.377,-214.1133"/>
<polygon fill="#000000" stroke="#000000" points="398.5695,-216.8415 404.1797,-207.854 394.1893,-211.3813 398.5695,-216.8415"/>
</g>
<!-- F&#45;&gt;G -->
<g id="edge7" class="edge">
<title>F&#45;&gt;G</title>
<path fill="none" stroke="#000000" d="M514.4699,-300.7766C512.4833,-285.3423 507.829,-263.204 496.9429,-247 487.7241,-233.2778 473.919,-221.6156 460.7872,-212.6093"/>
<polygon fill="#000000" stroke="#000000" points="462.5977,-209.6115 452.3098,-207.0794 458.7732,-215.4744 462.5977,-209.6115"/>
</g>
<!-- H -->
<g id="node8" class="node">
<title>H</title>
<ellipse fill="none" stroke="#000000" cx="401.9429" cy="-105" rx="102.8821" ry="18"/>
<text text-anchor="middle" x="401.9429" y="-101.3" font-family="Times,serif" font-size="14.00" fill="#000000">Contribute it to HyperSpy</text>
</g>
<!-- G&#45;&gt;H -->
<g id="edge8" class="edge">
<title>G&#45;&gt;H</title>
<path fill="none" stroke="#000000" d="M419.4909,-174.3943C416.4893,-162.5244 412.465,-146.6102 409.0275,-133.0162"/>
<polygon fill="#000000" stroke="#000000" points="412.3846,-132.0152 406.5398,-123.1785 405.5982,-133.7314 412.3846,-132.0152"/>
<text text-anchor="middle" x="425.9429" y="-144.8" font-family="Times,serif" font-size="14.00" fill="#000000">Yes</text>
</g>
<!-- I -->
<g id="node9" class="node">
<title>I</title>
<polygon fill="none" stroke="#000000" points="690.9429,-123 522.5311,-105 690.9429,-87 859.3547,-105 690.9429,-123"/>
<text text-anchor="middle" x="690.9429" y="-101.3" font-family="Times,serif" font-size="14.00" fill="#000000">Does a suitable package exist?</text>
</g>
<!-- G&#45;&gt;I -->
<g id="edge9" class="edge">
<title>G&#45;&gt;I</title>
<path fill="none" stroke="#000000" d="M465.0765,-178.5969C511.9777,-163.3145 588.712,-138.3112 639.5227,-121.7549"/>
<polygon fill="#000000" stroke="#000000" points="640.899,-124.9876 649.3227,-118.5617 638.7303,-118.332 640.899,-124.9876"/>
<text text-anchor="middle" x="582.4429" y="-144.8" font-family="Times,serif" font-size="14.00" fill="#000000">No</text>
</g>
<!-- J -->
<g id="node10" class="node">
<title>J</title>
<ellipse fill="none" stroke="#000000" cx="544.9429" cy="-18" rx="139.9756" ry="18"/>
<text text-anchor="middle" x="544.9429" y="-14.3" font-family="Times,serif" font-size="14.00" fill="#000000">Contribute it to the relevant package</text>
</g>
<!-- I&#45;&gt;J -->
<g id="edge10" class="edge">
<title>I&#45;&gt;J</title>
<path fill="none" stroke="#000000" d="M665.1771,-89.6464C642.4762,-76.1192 609.0956,-56.228 583.263,-40.8346"/>
<polygon fill="#000000" stroke="#000000" points="584.8525,-37.7075 574.4703,-35.5951 581.2692,-43.7208 584.8525,-37.7075"/>
<text text-anchor="middle" x="637.9429" y="-57.8" font-family="Times,serif" font-size="14.00" fill="#000000">Yes</text>
</g>
<!-- K -->
<g id="node11" class="node">
<title>K</title>
<ellipse fill="none" stroke="#000000" cx="836.9429" cy="-18" rx="134.5761" ry="18"/>
<text text-anchor="middle" x="836.9429" y="-14.3" font-family="Times,serif" font-size="14.00" fill="#000000">Create your own package to host it</text>
</g>
<!-- I&#45;&gt;K -->
<g id="edge11" class="edge">
<title>I&#45;&gt;K</title>
<path fill="none" stroke="#000000" d="M716.7087,-89.6464C739.4096,-76.1192 772.7902,-56.228 798.6228,-40.8346"/>
<polygon fill="#000000" stroke="#000000" points="800.6167,-43.7208 807.4155,-35.5951 797.0333,-37.7075 800.6167,-43.7208"/>
<text text-anchor="middle" x="780.4429" y="-57.8" font-family="Times,serif" font-size="14.00" fill="#000000">No</text>
</g>
</g>
</svg>
