<?xml version="1.0" encoding="UTF-8" standalone="no"?>
<!DOCTYPE svg PUBLIC "-//W3C//DTD SVG 1.1//EN"
 "http://www.w3.org/Graphics/SVG/1.1/DTD/svg11.dtd">
<!-- Generated by graphviz version 2.43.0 (0)
 -->
<!-- Title: G Pages: 1 -->
<svg width="1854pt" height="538pt"
 viewBox="0.00 0.00 1853.59 538.00" xmlns="http://www.w3.org/2000/svg" xmlns:xlink="http://www.w3.org/1999/xlink">
<g id="graph0" class="graph" transform="scale(1 1) rotate(0) translate(4 534)">
<title>G</title>
<polygon fill="white" stroke="transparent" points="-4,4 -4,-534 1849.59,-534 1849.59,4 -4,4"/>
<!-- A -->
<g id="node1" class="node">
<title>A</title>
<ellipse fill="none" stroke="black" cx="331.82" cy="-512" rx="113.18" ry="18"/>
<text text-anchor="middle" x="331.82" y="-508.3" font-family="Times,serif" font-size="14.00">New function needed!</text>
</g>
<!-- B -->
<g id="node2" class="node">
<title>B</title>
<polygon fill="none" stroke="black" points="331.82,-457 0.18,-439 331.82,-421 663.45,-439 331.82,-457"/>
<text text-anchor="middle" x="331.82" y="-435.3" font-family="Times,serif" font-size="14.00">Is it useful for data of any type and dimensions?</text>
</g>
<!-- A&#45;&gt;B -->
<g id="edge1" class="edge">
<title>A&#45;&gt;B</title>
<path fill="none" stroke="black" d="M331.82,-493.81C331.82,-485.79 331.82,-476.05 331.82,-467.07"/>
<polygon fill="black" stroke="black" points="335.32,-467.03 331.82,-457.03 328.32,-467.03 335.32,-467.03"/>
</g>
<!-- C -->
<g id="node3" class="node">
<title>C</title>
<ellipse fill="none" stroke="black" cx="307.82" cy="-352" rx="137.58" ry="18"/>
<text text-anchor="middle" x="307.82" y="-348.3" font-family="Times,serif" font-size="14.00">Contribute it to BaseSignal</text>
</g>
<!-- B&#45;&gt;C -->
<g id="edge2" class="edge">
<title>B&#45;&gt;C</title>
<path fill="none" stroke="black" d="M327.07,-421.21C323.74,-409.41 319.22,-393.38 315.39,-379.82"/>
<polygon fill="black" stroke="black" points="318.72,-378.72 312.63,-370.05 311.98,-380.62 318.72,-378.72"/>
<text text-anchor="middle" x="334.32" y="-391.8" font-family="Times,serif" font-size="14.00">Yes</text>
</g>
<!-- D -->
<g id="node4" class="node">
<title>D</title>
<polygon fill="none" stroke="black" points="895.82,-370 463.81,-352 895.82,-334 1327.82,-352 895.82,-370"/>
<text text-anchor="middle" x="895.82" y="-348.3" font-family="Times,serif" font-size="14.00">Does a SignalxD for the required dimension exist in HyperSpy?</text>
</g>
<!-- B&#45;&gt;D -->
<g id="edge3" class="edge">
<title>B&#45;&gt;D</title>
<path fill="none" stroke="black" d="M415.04,-425.46C516.81,-410.12 688.86,-384.19 797.18,-367.87"/>
<polygon fill="black" stroke="black" points="797.77,-371.32 807.13,-366.37 796.72,-364.39 797.77,-371.32"/>
<text text-anchor="middle" x="658.32" y="-391.8" font-family="Times,serif" font-size="14.00">No</text>
</g>
<!-- E -->
<g id="node5" class="node">
<title>E</title>
<ellipse fill="none" stroke="black" cx="735.82" cy="-265" rx="189.27" ry="18"/>
<text text-anchor="middle" x="735.82" y="-261.3" font-family="Times,serif" font-size="14.00">Contribute new SignalxD to HyperSpy</text>
</g>
<!-- D&#45;&gt;E -->
<g id="edge5" class="edge">
<title>D&#45;&gt;E</title>
<path fill="none" stroke="black" d="M866.1,-335.21C840.93,-321.84 804.59,-302.54 776.68,-287.71"/>
<polygon fill="black" stroke="black" points="778.04,-284.47 767.57,-282.87 774.76,-290.65 778.04,-284.47"/>
<text text-anchor="middle" x="836.32" y="-304.8" font-family="Times,serif" font-size="14.00">No</text>
</g>
<!-- F -->
<g id="node6" class="node">
<title>F</title>
<polygon fill="none" stroke="black" points="847.82,-210 484.68,-192 847.82,-174 1210.95,-192 847.82,-210"/>
<text text-anchor="middle" x="847.82" y="-188.3" font-family="Times,serif" font-size="14.00">Is the function useful for a specific type of data only?</text>
</g>
<!-- D&#45;&gt;F -->
<g id="edge4" class="edge">
<title>D&#45;&gt;F</title>
<path fill="none" stroke="black" d="M910.28,-334.47C926.9,-313.37 949.91,-276.1 933.82,-247 925.76,-232.43 911.95,-221.27 897.73,-212.97"/>
<polygon fill="black" stroke="black" points="899.33,-209.86 888.87,-208.18 895.99,-216.02 899.33,-209.86"/>
<text text-anchor="middle" x="952.32" y="-261.3" font-family="Times,serif" font-size="14.00">Yes</text>
</g>
<!-- E&#45;&gt;F -->
<g id="edge6" class="edge">
<title>E&#45;&gt;F</title>
<path fill="none" stroke="black" d="M762.36,-247.17C777.75,-237.42 797.29,-225.03 813.8,-214.56"/>
<polygon fill="black" stroke="black" points="816.05,-217.28 822.62,-208.97 812.3,-211.37 816.05,-217.28"/>
</g>
<!-- G -->
<g id="node7" class="node">
<title>G</title>
<ellipse fill="none" stroke="black" cx="825.82" cy="-105" rx="128.08" ry="18"/>
<text text-anchor="middle" x="825.82" y="-101.3" font-family="Times,serif" font-size="14.00">Contribute it to SignalxD</text>
</g>
<!-- F&#45;&gt;G -->
<g id="edge8" class="edge">
<title>F&#45;&gt;G</title>
<path fill="none" stroke="black" d="M843.47,-174.21C840.42,-162.41 836.27,-146.38 832.76,-132.82"/>
<polygon fill="black" stroke="black" points="836.12,-131.85 830.23,-123.05 829.35,-133.61 836.12,-131.85"/>
<text text-anchor="middle" x="849.32" y="-144.8" font-family="Times,serif" font-size="14.00">No</text>
</g>
<!-- H -->
<g id="node8" class="node">
<title>H</title>
<polygon fill="none" stroke="black" points="1250.82,-123 971.47,-105 1250.82,-87 1530.16,-105 1250.82,-123"/>
<text text-anchor="middle" x="1250.82" y="-101.3" font-family="Times,serif" font-size="14.00">Does a signal for that sort of data exist?</text>
</g>
<!-- F&#45;&gt;H -->
<g id="edge7" class="edge">
<title>F&#45;&gt;H</title>
<path fill="none" stroke="black" d="M913.46,-177.15C986.36,-161.78 1103.65,-137.04 1178.96,-121.16"/>
<polygon fill="black" stroke="black" points="1179.78,-124.56 1188.84,-119.07 1178.33,-117.71 1179.78,-124.56"/>
<text text-anchor="middle" x="1085.32" y="-144.8" font-family="Times,serif" font-size="14.00">Yes</text>
</g>
<!-- I -->
<g id="node9" class="node">
<title>I</title>
<ellipse fill="none" stroke="black" cx="962.82" cy="-18" rx="251.56" ry="18"/>
<text text-anchor="middle" x="962.82" y="-14.3" font-family="Times,serif" font-size="14.00">Contribute to package providing the relevant signal</text>
</g>
<!-- H&#45;&gt;I -->
<g id="edge9" class="edge">
<title>H&#45;&gt;I</title>
<path fill="none" stroke="black" d="M1203.26,-89.96C1155.66,-75.91 1082.03,-54.18 1028.79,-38.47"/>
<polygon fill="black" stroke="black" points="1029.68,-35.08 1019.1,-35.61 1027.7,-41.8 1029.68,-35.08"/>
<text text-anchor="middle" x="1136.32" y="-57.8" font-family="Times,serif" font-size="14.00">Yes</text>
</g>
<!-- J -->
<g id="node10" class="node">
<title>J</title>
<ellipse fill="none" stroke="black" cx="1538.82" cy="-18" rx="306.55" ry="18"/>
<text text-anchor="middle" x="1538.82" y="-14.3" font-family="Times,serif" font-size="14.00">Create you own package and signal subclass to host the funtion</text>
</g>
<!-- H&#45;&gt;J -->
<g id="edge10" class="edge">
<title>H&#45;&gt;J</title>
<path fill="none" stroke="black" d="M1298.37,-89.96C1345.83,-75.96 1419.14,-54.32 1472.34,-38.62"/>
<polygon fill="black" stroke="black" points="1473.43,-41.95 1482.03,-35.76 1471.44,-35.23 1473.43,-41.95"/>
<text text-anchor="middle" x="1422.32" y="-57.8" font-family="Times,serif" font-size="14.00">No</text>
</g>
</g>
</svg>
