<?xml version="1.0" encoding="UTF-8" standalone="no"?>
<!DOCTYPE svg PUBLIC "-//W3C//DTD SVG 1.1//EN"
 "http://www.w3.org/Graphics/SVG/1.1/DTD/svg11.dtd">
<!-- Generated by graphviz version 2.44.0 (0)
 -->
<!-- Title: G Pages: 1 -->
<svg width="1211pt" height="559pt"
 viewBox="0.00 0.00 1211.13 559.00" xmlns="http://www.w3.org/2000/svg" xmlns:xlink="http://www.w3.org/1999/xlink">
<g id="graph0" class="graph" transform="scale(1 1) rotate(0) translate(4 555)">
<title>G</title>
<polygon fill="white" stroke="transparent" points="-4,4 -4,-555 1207.13,-555 1207.13,4 -4,4"/>
<!-- A -->
<g id="node1" class="node">
<title>A</title>
<ellipse fill="none" stroke="black" cx="511.79" cy="-533" rx="124.28" ry="18"/>
<text text-anchor="middle" x="511.79" y="-529.3" font-family="Times-Roman" font-size="14.00">New component needed!</text>
</g>
<!-- B -->
<g id="node2" class="node">
<title>B</title>
<polygon fill="none" stroke="black" points="511.79,-478 260.93,-460 511.79,-442 762.65,-460 511.79,-478"/>
<text text-anchor="middle" x="511.79" y="-456.3" font-family="Times-Roman" font-size="14.00">Can it be declared using Expression?</text>
</g>
<!-- A&#45;&gt;B -->
<g id="edge1" class="edge">
<title>A&#45;&gt;B</title>
<path fill="none" stroke="black" d="M511.79,-514.81C511.79,-506.79 511.79,-497.05 511.79,-488.07"/>
<polygon fill="black" stroke="black" points="515.29,-488.03 511.79,-478.03 508.29,-488.03 515.29,-488.03"/>
</g>
<!-- C -->
<g id="node3" class="node">
<title>C</title>
<polygon fill="none" stroke="black" points="388.79,-391 171.95,-373 388.79,-355 605.63,-373 388.79,-391"/>
<text text-anchor="middle" x="388.79" y="-369.3" font-family="Times-Roman" font-size="14.00">Can it be useful to other users?</text>
</g>
<!-- B&#45;&gt;C -->
<g id="edge2" class="edge">
<title>B&#45;&gt;C</title>
<path fill="none" stroke="black" d="M489.23,-443.41C469.52,-429.79 440.73,-409.89 419.03,-394.89"/>
<polygon fill="black" stroke="black" points="421.01,-392.01 410.79,-389.21 417.03,-397.77 421.01,-392.01"/>
<text text-anchor="middle" x="469.29" y="-412.8" font-family="Times-Roman" font-size="14.00">Yes</text>
</g>
<!-- F -->
<g id="node6" class="node">
<title>F</title>
<ellipse fill="none" stroke="black" cx="633.79" cy="-319" rx="174.67" ry="18"/>
<text text-anchor="middle" x="633.79" y="-315.3" font-family="Times-Roman" font-size="14.00">Create new component from scratch</text>
</g>
<!-- B&#45;&gt;F -->
<g id="edge3" class="edge">
<title>B&#45;&gt;F</title>
<path fill="none" stroke="black" d="M546.25,-444.27C568.92,-432.88 597.5,-414.99 614.79,-391 623.95,-378.3 628.69,-361.46 631.15,-347.36"/>
<polygon fill="black" stroke="black" points="634.64,-347.64 632.62,-337.24 627.72,-346.63 634.64,-347.64"/>
<text text-anchor="middle" x="607.29" y="-412.8" font-family="Times-Roman" font-size="14.00">No</text>
</g>
<!-- D -->
<g id="node4" class="node">
<title>D</title>
<ellipse fill="none" stroke="black" cx="98.79" cy="-265" rx="98.58" ry="18"/>
<text text-anchor="middle" x="98.79" y="-261.3" font-family="Times-Roman" font-size="14.00">Just use Expression</text>
</g>
<!-- C&#45;&gt;D -->
<g id="edge5" class="edge">
<title>C&#45;&gt;D</title>
<path fill="none" stroke="black" d="M350.88,-358.14C299.65,-339.42 208.11,-305.96 150.58,-284.93"/>
<polygon fill="black" stroke="black" points="151.54,-281.55 140.95,-281.41 149.14,-288.13 151.54,-281.55"/>
<text text-anchor="middle" x="296.29" y="-315.3" font-family="Times-Roman" font-size="14.00">No</text>
</g>
<!-- E -->
<g id="node5" class="node">
<title>E</title>
<ellipse fill="none" stroke="black" cx="410.79" cy="-265" rx="194.97" ry="18"/>
<text text-anchor="middle" x="410.79" y="-261.3" font-family="Times-Roman" font-size="14.00">Create new component using Expression</text>
</g>
<!-- C&#45;&gt;E -->
<g id="edge4" class="edge">
<title>C&#45;&gt;E</title>
<path fill="none" stroke="black" d="M392.33,-354.97C395.79,-338.3 401.11,-312.65 405.15,-293.16"/>
<polygon fill="black" stroke="black" points="408.59,-293.84 407.19,-283.34 401.73,-292.42 408.59,-293.84"/>
<text text-anchor="middle" x="415.29" y="-315.3" font-family="Times-Roman" font-size="14.00">Yes</text>
</g>
<!-- G -->
<g id="node7" class="node">
<title>G</title>
<polygon fill="none" stroke="black" points="521.79,-210 318.52,-192 521.79,-174 725.06,-192 521.79,-210"/>
<text text-anchor="middle" x="521.79" y="-188.3" font-family="Times-Roman" font-size="14.00">Is it useful for general users?</text>
</g>
<!-- E&#45;&gt;G -->
<g id="edge6" class="edge">
<title>E&#45;&gt;G</title>
<path fill="none" stroke="black" d="M437.38,-246.99C453.07,-236.96 473.04,-224.18 489.62,-213.58"/>
<polygon fill="black" stroke="black" points="491.9,-216.28 498.43,-207.94 488.12,-210.38 491.9,-216.28"/>
</g>
<!-- F&#45;&gt;G -->
<g id="edge7" class="edge">
<title>F&#45;&gt;G</title>
<path fill="none" stroke="black" d="M632.86,-300.9C631.24,-285.42 626.81,-262.71 614.79,-247 603.02,-231.61 585.51,-219.83 568.84,-211.25"/>
<polygon fill="black" stroke="black" points="570.24,-208.04 559.72,-206.81 567.18,-214.33 570.24,-208.04"/>
</g>
<!-- H -->
<g id="node8" class="node">
<title>H</title>
<ellipse fill="none" stroke="black" cx="498.79" cy="-105" rx="126.18" ry="18"/>
<text text-anchor="middle" x="498.79" y="-101.3" font-family="Times-Roman" font-size="14.00">Contribute it to HyperSpy</text>
</g>
<!-- G&#45;&gt;H -->
<g id="edge8" class="edge">
<title>G&#45;&gt;H</title>
<path fill="none" stroke="black" d="M517.25,-174.21C514.05,-162.41 509.72,-146.38 506.05,-132.82"/>
<polygon fill="black" stroke="black" points="509.4,-131.79 503.4,-123.05 502.64,-133.62 509.4,-131.79"/>
<text text-anchor="middle" x="523.29" y="-144.8" font-family="Times-Roman" font-size="14.00">Yes</text>
</g>
<!-- I -->
<g id="node9" class="node">
<title>I</title>
<polygon fill="none" stroke="black" points="853.79,-123 642.48,-105 853.79,-87 1065.1,-105 853.79,-123"/>
<text text-anchor="middle" x="853.79" y="-101.3" font-family="Times-Roman" font-size="14.00">Does a suitable package exist?</text>
</g>
<!-- G&#45;&gt;I -->
<g id="edge9" class="edge">
<title>G&#45;&gt;I</title>
<path fill="none" stroke="black" d="M571.14,-178.37C630.55,-163.16 730.27,-137.62 794,-121.31"/>
<polygon fill="black" stroke="black" points="795.08,-124.64 803.9,-118.77 793.35,-117.86 795.08,-124.64"/>
<text text-anchor="middle" x="717.29" y="-144.8" font-family="Times-Roman" font-size="14.00">No</text>
</g>
<!-- J -->
<g id="node10" class="node">
<title>J</title>
<ellipse fill="none" stroke="black" cx="671.79" cy="-18" rx="176.57" ry="18"/>
<text text-anchor="middle" x="671.79" y="-14.3" font-family="Times-Roman" font-size="14.00">Contribute it to the relevant package</text>
</g>
<!-- I&#45;&gt;J -->
<g id="edge10" class="edge">
<title>I&#45;&gt;J</title>
<path fill="none" stroke="black" d="M822.92,-89.58C793.84,-76 749.94,-55.5 716.94,-40.08"/>
<polygon fill="black" stroke="black" points="718.05,-36.74 707.51,-35.68 715.09,-43.08 718.05,-36.74"/>
<text text-anchor="middle" x="785.29" y="-57.8" font-family="Times-Roman" font-size="14.00">Yes</text>
</g>
<!-- K -->
<g id="node11" class="node">
<title>K</title>
<ellipse fill="none" stroke="black" cx="1034.79" cy="-18" rx="168.17" ry="18"/>
<text text-anchor="middle" x="1034.79" y="-14.3" font-family="Times-Roman" font-size="14.00">Create your own package to host it</text>
</g>
<!-- I&#45;&gt;K -->
<g id="edge11" class="edge">
<title>I&#45;&gt;K</title>
<path fill="none" stroke="black" d="M884.5,-89.58C913.41,-76 957.07,-55.5 989.89,-40.08"/>
<polygon fill="black" stroke="black" points="991.71,-43.1 999.27,-35.68 988.73,-36.76 991.71,-43.1"/>
<text text-anchor="middle" x="964.29" y="-57.8" font-family="Times-Roman" font-size="14.00">No</text>
</g>
</g>
</svg>
