<?xml version="1.0" encoding="UTF-8" standalone="no"?>
<!DOCTYPE svg PUBLIC "-//W3C//DTD SVG 1.1//EN"
 "http://www.w3.org/Graphics/SVG/1.1/DTD/svg11.dtd">
<!-- Generated by graphviz version 2.40.1 (20161225.0304)
 -->
<!-- Title: G Pages: 1 -->
<svg width="1963pt" height="520pt"
 viewBox="0.00 0.00 1962.61 520.39" xmlns="http://www.w3.org/2000/svg" xmlns:xlink="http://www.w3.org/1999/xlink">
<g id="graph0" class="graph" transform="scale(1 1) rotate(0) translate(4 516.3896)">
<title>G</title>
<polygon fill="#ffffff" stroke="transparent" points="-4,4 -4,-516.3896 1958.6141,-516.3896 1958.6141,4 -4,4"/>
<!-- A -->
<g id="node1" class="node">
<title>A</title>
<ellipse fill="#d3d3d3" stroke="#000000" cx="365.0526" cy="-494.3896" rx="86.3847" ry="18"/>
<text text-anchor="middle" x="365.0526" y="-490.6896" font-family="Times,serif" font-size="14.00" fill="#000000">New function needed</text>
</g>
<!-- B -->
<g id="node2" class="node">
<title>B</title>
<polygon fill="#d3d3d3" stroke="#000000" points="681.1126,-291.8015 423.046,-273.8015 681.1126,-255.8015 939.1791,-273.8015 681.1126,-291.8015"/>
<text text-anchor="middle" x="681.1126" y="-270.1015" font-family="Times,serif" font-size="14.00" fill="#000000">Is it useful for data of any type and dimensions?</text>
</g>
<!-- A&#45;&gt;B -->
<g id="edge1" class="edge">
<title>A&#45;&gt;B</title>
<path fill="none" stroke="#000000" d="M389.8533,-477.0805C446.5598,-437.5032 585.6591,-340.4215 648.8898,-296.2908"/>
<polygon fill="#000000" stroke="#000000" points="651.0948,-299.02 657.292,-290.4267 647.0885,-293.2798 651.0948,-299.02"/>
</g>
<!-- C -->
<g id="node3" class="node">
<title>C</title>
<ellipse fill="#d3d3d3" stroke="#000000" cx="106.5905" cy="-198.6041" rx="106.6812" ry="18"/>
<text text-anchor="middle" x="106.5905" y="-194.9041" font-family="Times,serif" font-size="14.00" fill="#000000">Contribute it to BaseSignal</text>
</g>
<!-- B&#45;&gt;C -->
<g id="edge2" class="edge">
<title>B&#45;&gt;C</title>
<path fill="none" stroke="#000000" d="M591.3435,-262.0519C485.1475,-248.1523 309.1578,-225.1175 200.9832,-210.9589"/>
<polygon fill="#000000" stroke="#000000" points="201.4242,-207.4868 191.0545,-209.6594 200.5157,-214.4276 201.4242,-207.4868"/>
<text text-anchor="middle" x="385.1634" y="-240.3054" font-family="Times,serif" font-size="14.00" fill="#000000">Yes</text>
</g>
<!-- D -->
<g id="node4" class="node">
<title>D</title>
<polygon fill="#d3d3d3" stroke="#000000" points="891.8117,-498.3444 554.6501,-480.3444 891.8117,-462.3444 1228.9732,-480.3444 891.8117,-498.3444"/>
<text text-anchor="middle" x="891.8117" y="-476.6444" font-family="Times,serif" font-size="14.00" fill="#000000">Does an SignalxD for the required dimension exist in HyperSpy</text>
</g>
<!-- B&#45;&gt;D -->
<g id="edge3" class="edge">
<title>B&#45;&gt;D</title>
<path fill="none" stroke="#000000" d="M698.355,-290.7038C735.627,-327.2406 823.8184,-413.6923 867.0508,-456.0719"/>
<polygon fill="#000000" stroke="#000000" points="864.7397,-458.7076 874.331,-463.2085 869.6399,-453.7088 864.7397,-458.7076"/>
<text text-anchor="middle" x="774.2029" y="-377.1879" font-family="Times,serif" font-size="14.00" fill="#000000">No</text>
</g>
<!-- E -->
<g id="node5" class="node">
<title>E</title>
<ellipse fill="#d3d3d3" stroke="#000000" cx="1263.0773" cy="-445.6726" rx="148.3739" ry="18"/>
<text text-anchor="middle" x="1263.0773" y="-441.9726" font-family="Times,serif" font-size="14.00" fill="#000000">Contribute new SignalxD to HyperSpy</text>
</g>
<!-- D&#45;&gt;E -->
<g id="edge5" class="edge">
<title>D&#45;&gt;E</title>
<path fill="none" stroke="#000000" d="M1014.6644,-468.8714C1053.3326,-465.2602 1096.1204,-461.2644 1135.1335,-457.621"/>
<polygon fill="#000000" stroke="#000000" points="1135.865,-461.068 1145.4962,-456.6533 1135.2141,-454.0984 1135.865,-461.068"/>
<text text-anchor="middle" x="1066.3989" y="-452.0462" font-family="Times,serif" font-size="14.00" fill="#000000">No</text>
</g>
<!-- F -->
<g id="node6" class="node">
<title>F</title>
<polygon fill="#d3d3d3" stroke="#000000" points="944.5106,-68.0558 683.4293,-50.0558 944.5106,-32.0558 1205.5919,-50.0558 944.5106,-68.0558"/>
<text text-anchor="middle" x="944.5106" y="-46.3558" font-family="Times,serif" font-size="14.00" fill="#000000">Is the function useful only for some sort of data?</text>
</g>
<!-- D&#45;&gt;F -->
<g id="edge4" class="edge">
<title>D&#45;&gt;F</title>
<path fill="none" stroke="#000000" d="M894.009,-462.4032C902.2118,-395.4268 931.0822,-159.6989 941.0756,-78.1027"/>
<polygon fill="#000000" stroke="#000000" points="944.5622,-78.4249 942.3039,-68.0736 937.6141,-77.5739 944.5622,-78.4249"/>
<text text-anchor="middle" x="906.5423" y="-274.053" font-family="Times,serif" font-size="14.00" fill="#000000">Yes</text>
</g>
<!-- E&#45;&gt;F -->
<g id="edge6" class="edge">
<title>E&#45;&gt;F</title>
<path fill="none" stroke="#000000" d="M1248.5614,-427.6458C1197.2262,-363.8944 1024.1586,-148.9679 964.7381,-75.1756"/>
<polygon fill="#000000" stroke="#000000" points="967.3857,-72.883 958.3878,-67.2894 961.9336,-77.2733 967.3857,-72.883"/>
</g>
<!-- G -->
<g id="node7" class="node">
<title>G</title>
<ellipse fill="#d3d3d3" stroke="#000000" cx="486.7893" cy="-18" rx="100.9827" ry="18"/>
<text text-anchor="middle" x="486.7893" y="-14.3" font-family="Times,serif" font-size="14.00" fill="#000000">Contribute it to SignalxD</text>
</g>
<!-- F&#45;&gt;G -->
<g id="edge8" class="edge">
<title>F&#45;&gt;G</title>
<path fill="none" stroke="#000000" d="M814.876,-40.9771C743.974,-36.0115 657.3153,-29.9425 590.869,-25.2891"/>
<polygon fill="#000000" stroke="#000000" points="591.0207,-21.7912 580.8006,-24.5839 590.5316,-28.7741 591.0207,-21.7912"/>
<text text-anchor="middle" x="694.3725" y="-21.9331" font-family="Times,serif" font-size="14.00" fill="#000000">No</text>
</g>
<!-- H -->
<g id="node8" class="node">
<title>H</title>
<polygon fill="#d3d3d3" stroke="#000000" points="1313.0772,-83.3518 1086.8518,-65.3518 1313.0772,-47.3518 1539.3027,-65.3518 1313.0772,-83.3518"/>
<text text-anchor="middle" x="1313.0772" y="-61.6518" font-family="Times,serif" font-size="14.00" fill="#000000">Does an signal for that sort of data exists?</text>
</g>
<!-- F&#45;&gt;H -->
<g id="edge7" class="edge">
<title>F&#45;&gt;H</title>
<path fill="none" stroke="#000000" d="M1107.5105,-56.8205C1123.0013,-57.4634 1138.6955,-58.1148 1154.1472,-58.756"/>
<polygon fill="#000000" stroke="#000000" points="1154.125,-62.258 1164.2616,-59.1758 1154.4154,-55.2641 1154.125,-62.258"/>
<text text-anchor="middle" x="1119.8288" y="-46.5883" font-family="Times,serif" font-size="14.00" fill="#000000">Yes</text>
</g>
<!-- I -->
<g id="node9" class="node">
<title>I</title>
<ellipse fill="#d3d3d3" stroke="#000000" cx="1743.1142" cy="-63.318" rx="192.2659" ry="18"/>
<text text-anchor="middle" x="1743.1142" y="-59.618" font-family="Times,serif" font-size="14.00" fill="#000000">Contribute to package providing the relevant signal</text>
</g>
<!-- H&#45;&gt;I -->
<g id="edge9" class="edge">
<title>H&#45;&gt;I</title>
<path fill="none" stroke="#000000" d="M1526.8358,-64.3409C1531.4668,-64.319 1536.0985,-64.2971 1540.7224,-64.2752"/>
<polygon fill="#000000" stroke="#000000" points="1540.8458,-67.7748 1550.8291,-64.2274 1540.8126,-60.7749 1540.8458,-67.7748"/>
<text text-anchor="middle" x="1539.2791" y="-53.1081" font-family="Times,serif" font-size="14.00" fill="#000000">Yes</text>
</g>
<!-- J -->
<g id="node10" class="node">
<title>J</title>
<ellipse fill="#d3d3d3" stroke="#000000" cx="1719.3349" cy="-449.3708" rx="235.0585" ry="18"/>
<text text-anchor="middle" x="1719.3349" y="-445.6708" font-family="Times,serif" font-size="14.00" fill="#000000">Create you own package and signal subclass to host the funtion</text>
</g>
<!-- H&#45;&gt;J -->
<g id="edge10" class="edge">
<title>H&#45;&gt;J</title>
<path fill="none" stroke="#000000" d="M1330.7949,-82.0996C1395.0225,-142.8114 1615.884,-351.5828 1692.7272,-424.2195"/>
<polygon fill="#000000" stroke="#000000" points="1690.4511,-426.8842 1700.1225,-431.2101 1695.2596,-421.7972 1690.4511,-426.8842"/>
<text text-anchor="middle" x="1503.261" y="-256.9596" font-family="Times,serif" font-size="14.00" fill="#000000">No</text>
</g>
</g>
</svg>
