<?xml version="1.0" encoding="UTF-8" standalone="no"?>
<!DOCTYPE svg PUBLIC "-//W3C//DTD SVG 1.1//EN"
 "http://www.w3.org/Graphics/SVG/1.1/DTD/svg11.dtd">
<!-- Generated by graphviz version 2.40.1 (20161225.0304)
 -->
<!-- Title: G Pages: 1 -->
<svg width="1454pt" height="538pt"
 viewBox="0.00 0.00 1453.80 538.00" xmlns="http://www.w3.org/2000/svg" xmlns:xlink="http://www.w3.org/1999/xlink">
<g id="graph0" class="graph" transform="scale(1 1) rotate(0) translate(4 534)">
<title>G</title>
<polygon fill="#ffffff" stroke="transparent" points="-4,4 -4,-534 1449.8048,-534 1449.8048,4 -4,4"/>
<!-- A -->
<g id="node1" class="node">
<title>A</title>
<ellipse fill="none" stroke="#000000" cx="255.5257" cy="-512" rx="87.1846" ry="18"/>
<text text-anchor="middle" x="255.5257" y="-508.3" font-family="Times,serif" font-size="14.00" fill="#000000">New function needed</text>
</g>
<!-- B -->
<g id="node2" class="node">
<title>B</title>
<polygon fill="none" stroke="#000000" points="255.5257,-457 -.0257,-439 255.5257,-421 511.0772,-439 255.5257,-457"/>
<text text-anchor="middle" x="255.5257" y="-435.3" font-family="Times,serif" font-size="14.00" fill="#000000">Is it useful for data of any type and dimensions?</text>
</g>
<!-- A&#45;&gt;B -->
<g id="edge1" class="edge">
<title>A&#45;&gt;B</title>
<path fill="none" stroke="#000000" d="M255.5257,-493.9551C255.5257,-485.8828 255.5257,-476.1764 255.5257,-467.1817"/>
<polygon fill="#000000" stroke="#000000" points="259.0258,-467.0903 255.5257,-457.0904 252.0258,-467.0904 259.0258,-467.0903"/>
</g>
<!-- C -->
<g id="node3" class="node">
<title>C</title>
<ellipse fill="none" stroke="#000000" cx="233.5257" cy="-352" rx="108.5808" ry="18"/>
<text text-anchor="middle" x="233.5257" y="-348.3" font-family="Times,serif" font-size="14.00" fill="#000000">Contribute it to BaseSignal</text>
</g>
<!-- B&#45;&gt;C -->
<g id="edge2" class="edge">
<title>B&#45;&gt;C</title>
<path fill="none" stroke="#000000" d="M250.9673,-420.9735C247.9585,-409.0751 243.9569,-393.2508 240.5456,-379.7606"/>
<polygon fill="#000000" stroke="#000000" points="243.9231,-378.8401 238.0783,-370.0034 237.1367,-380.5563 243.9231,-378.8401"/>
<text text-anchor="middle" x="257.0257" y="-391.8" font-family="Times,serif" font-size="14.00" fill="#000000">Yes</text>
</g>
<!-- D -->
<g id="node4" class="node">
<title>D</title>
<polygon fill="none" stroke="#000000" points="697.5257,-370 360.3642,-352 697.5257,-334 1034.6872,-352 697.5257,-370"/>
<text text-anchor="middle" x="697.5257" y="-348.3" font-family="Times,serif" font-size="14.00" fill="#000000">Does an SignalxD for the required dimension exist in HyperSpy</text>
</g>
<!-- B&#45;&gt;D -->
<g id="edge3" class="edge">
<title>B&#45;&gt;D</title>
<path fill="none" stroke="#000000" d="M323.1371,-425.6919C401.683,-410.2315 531.2377,-384.7309 615.4756,-368.1501"/>
<polygon fill="#000000" stroke="#000000" points="616.3817,-371.539 625.5174,-366.1736 615.0297,-364.6708 616.3817,-371.539"/>
<text text-anchor="middle" x="512.0257" y="-391.8" font-family="Times,serif" font-size="14.00" fill="#000000">No</text>
</g>
<!-- E -->
<g id="node5" class="node">
<title>E</title>
<ellipse fill="none" stroke="#000000" cx="567.5257" cy="-265" rx="148.3739" ry="18"/>
<text text-anchor="middle" x="567.5257" y="-261.3" font-family="Times,serif" font-size="14.00" fill="#000000">Contribute new SignalxD to HyperSpy</text>
</g>
<!-- D&#45;&gt;E -->
<g id="edge5" class="edge">
<title>D&#45;&gt;E</title>
<path fill="none" stroke="#000000" d="M672.4604,-335.2255C652.6591,-321.9739 624.7851,-303.3197 602.7417,-288.5676"/>
<polygon fill="#000000" stroke="#000000" points="604.5615,-285.574 594.3042,-282.921 600.6682,-291.3915 604.5615,-285.574"/>
<text text-anchor="middle" x="649.0257" y="-304.8" font-family="Times,serif" font-size="14.00" fill="#000000">No</text>
</g>
<!-- F -->
<g id="node6" class="node">
<title>F</title>
<polygon fill="none" stroke="#000000" points="659.5257,-210 398.4444,-192 659.5257,-174 920.607,-192 659.5257,-210"/>
<text text-anchor="middle" x="659.5257" y="-188.3" font-family="Times,serif" font-size="14.00" fill="#000000">Is the function useful only for some sort of data?</text>
</g>
<!-- D&#45;&gt;F -->
<g id="edge4" class="edge">
<title>D&#45;&gt;F</title>
<path fill="none" stroke="#000000" d="M709.1777,-334.2401C721.6647,-312.8057 737.9887,-276.0276 724.5257,-247 718.4698,-233.9428 707.6177,-222.8617 696.4937,-214.1424"/>
<polygon fill="#000000" stroke="#000000" points="698.5447,-211.3062 688.4105,-208.2163 694.4059,-216.9516 698.5447,-211.3062"/>
<text text-anchor="middle" x="741.0257" y="-261.3" font-family="Times,serif" font-size="14.00" fill="#000000">Yes</text>
</g>
<!-- E&#45;&gt;F -->
<g id="edge6" class="edge">
<title>E&#45;&gt;F</title>
<path fill="none" stroke="#000000" d="M590.2673,-246.9551C602.4018,-237.3266 617.4666,-225.373 630.4441,-215.0756"/>
<polygon fill="#000000" stroke="#000000" points="632.9609,-217.5466 638.6189,-208.5891 628.6098,-212.0631 632.9609,-217.5466"/>
</g>
<!-- G -->
<g id="node7" class="node">
<title>G</title>
<ellipse fill="none" stroke="#000000" cx="639.5257" cy="-105" rx="102.0819" ry="18"/>
<text text-anchor="middle" x="639.5257" y="-101.3" font-family="Times,serif" font-size="14.00" fill="#000000">Contribute it to SignalxD</text>
</g>
<!-- F&#45;&gt;G -->
<g id="edge8" class="edge">
<title>F&#45;&gt;G</title>
<path fill="none" stroke="#000000" d="M655.3817,-173.9735C652.6464,-162.0751 649.0086,-146.2508 645.9075,-132.7606"/>
<polygon fill="#000000" stroke="#000000" points="649.3159,-131.965 643.6644,-123.0034 642.4939,-133.5333 649.3159,-131.965"/>
<text text-anchor="middle" x="660.0257" y="-144.8" font-family="Times,serif" font-size="14.00" fill="#000000">No</text>
</g>
<!-- H -->
<g id="node8" class="node">
<title>H</title>
<polygon fill="none" stroke="#000000" points="986.5257,-123 759.462,-105 986.5257,-87 1213.5894,-105 986.5257,-123"/>
<text text-anchor="middle" x="986.5257" y="-101.3" font-family="Times,serif" font-size="14.00" fill="#000000">Does an signal for that sort of data exists?</text>
</g>
<!-- F&#45;&gt;H -->
<g id="edge7" class="edge">
<title>F&#45;&gt;H</title>
<path fill="none" stroke="#000000" d="M713.5231,-177.6337C771.5173,-162.2041 863.5295,-137.7238 924.4649,-121.5116"/>
<polygon fill="#000000" stroke="#000000" points="925.5776,-124.8374 934.3415,-118.8839 923.7778,-118.0727 925.5776,-124.8374"/>
<text text-anchor="middle" x="853.0257" y="-144.8" font-family="Times,serif" font-size="14.00" fill="#000000">Yes</text>
</g>
<!-- I -->
<g id="node9" class="node">
<title>I</title>
<ellipse fill="none" stroke="#000000" cx="762.5257" cy="-18" rx="194.1657" ry="18"/>
<text text-anchor="middle" x="762.5257" y="-14.3" font-family="Times,serif" font-size="14.00" fill="#000000">Contribute to package providing the relevant signal</text>
</g>
<!-- H&#45;&gt;I -->
<g id="edge9" class="edge">
<title>H&#45;&gt;I</title>
<path fill="none" stroke="#000000" d="M948.0187,-90.0442C912.0037,-76.0562 857.8364,-55.018 817.3211,-39.2821"/>
<polygon fill="#000000" stroke="#000000" points="818.4453,-35.9641 807.8565,-35.6062 815.911,-42.4892 818.4453,-35.9641"/>
<text text-anchor="middle" x="898.0257" y="-57.8" font-family="Times,serif" font-size="14.00" fill="#000000">Yes</text>
</g>
<!-- J -->
<g id="node10" class="node">
<title>J</title>
<ellipse fill="none" stroke="#000000" cx="1210.5257" cy="-18" rx="235.0585" ry="18"/>
<text text-anchor="middle" x="1210.5257" y="-14.3" font-family="Times,serif" font-size="14.00" fill="#000000">Create you own package and signal subclass to host the funtion</text>
</g>
<!-- H&#45;&gt;J -->
<g id="edge10" class="edge">
<title>H&#45;&gt;J</title>
<path fill="none" stroke="#000000" d="M1025.0327,-90.0442C1060.9319,-76.1012 1114.8669,-55.1532 1155.3391,-39.4341"/>
<polygon fill="#000000" stroke="#000000" points="1156.7427,-42.6437 1164.7971,-35.7607 1154.2083,-36.1186 1156.7427,-42.6437"/>
<text text-anchor="middle" x="1120.0257" y="-57.8" font-family="Times,serif" font-size="14.00" fill="#000000">No</text>
</g>
</g>
</svg>
