<?xml version="1.0" encoding="UTF-8" standalone="no"?>
<!DOCTYPE svg PUBLIC "-//W3C//DTD SVG 1.1//EN"
 "http://www.w3.org/Graphics/SVG/1.1/DTD/svg11.dtd">
<!-- Generated by graphviz version 11.0.0 (0)
 -->
<!-- Title: G Pages: 1 -->
<svg width="1506pt" height="543pt"
 viewBox="0.00 0.00 1506.08 543.00" xmlns="http://www.w3.org/2000/svg" xmlns:xlink="http://www.w3.org/1999/xlink">
<g id="graph0" class="graph" transform="scale(1 1) rotate(0) translate(4 539)">
<title>G</title>
<polygon fill="white" stroke="none" points="-4,4 -4,-539 1502.08,-539 1502.08,4 -4,4"/>
<!-- A -->
<g id="node1" class="node">
<title>A</title>
<ellipse fill="none" stroke="black" cx="270.22" cy="-517" rx="93.32" ry="18"/>
<text text-anchor="middle" x="270.22" y="-511.95" font-family="Times New Roman,serif" font-size="14.00">New function needed!</text>
</g>
<!-- B -->
<g id="node2" class="node">
<title>B</title>
<polygon fill="none" stroke="black" points="270.22,-463 0,-445 270.22,-427 540.44,-445 270.22,-463"/>
<text text-anchor="middle" x="270.22" y="-439.95" font-family="Times New Roman,serif" font-size="14.00">Is it useful for data of any type and dimensions?</text>
</g>
<!-- A&#45;&gt;B -->
<g id="edge1" class="edge">
<title>A&#45;&gt;B</title>
<path fill="none" stroke="black" d="M270.22,-498.7C270.22,-491.41 270.22,-482.73 270.22,-474.54"/>
<polygon fill="black" stroke="black" points="273.72,-474.62 270.22,-464.62 266.72,-474.62 273.72,-474.62"/>
</g>
<!-- C -->
<g id="node3" class="node">
<title>C</title>
<ellipse fill="none" stroke="black" cx="249.22" cy="-356.5" rx="111.74" ry="18"/>
<text text-anchor="middle" x="249.22" y="-351.45" font-family="Times New Roman,serif" font-size="14.00">Contribute it to BaseSignal</text>
</g>
<!-- B&#45;&gt;C -->
<g id="edge2" class="edge">
<title>B&#45;&gt;C</title>
<path fill="none" stroke="black" d="M266.07,-426.91C263.24,-415.26 259.43,-399.55 256.14,-386.02"/>
<polygon fill="black" stroke="black" points="259.55,-385.21 253.79,-376.32 252.75,-386.86 259.55,-385.21"/>
<text text-anchor="middle" x="272.35" y="-395.7" font-family="Times New Roman,serif" font-size="14.00">Yes</text>
</g>
<!-- D -->
<g id="node4" class="node">
<title>D</title>
<polygon fill="none" stroke="black" points="731.22,-374.5 378.49,-356.5 731.22,-338.5 1083.96,-356.5 731.22,-374.5"/>
<text text-anchor="middle" x="731.22" y="-351.45" font-family="Times New Roman,serif" font-size="14.00">Does a SignalxD for the required dimension exist in HyperSpy?</text>
</g>
<!-- B&#45;&gt;D -->
<g id="edge3" class="edge">
<title>B&#45;&gt;D</title>
<path fill="none" stroke="black" d="M338.74,-431.14C420.88,-415.73 558.52,-389.91 647.05,-373.29"/>
<polygon fill="black" stroke="black" points="647.46,-376.78 656.65,-371.49 646.17,-369.9 647.46,-376.78"/>
<text text-anchor="middle" x="550.47" y="-395.7" font-family="Times New Roman,serif" font-size="14.00">No</text>
</g>
<!-- E -->
<g id="node5" class="node">
<title>E</title>
<ellipse fill="none" stroke="black" cx="595.22" cy="-268" rx="155.25" ry="18"/>
<text text-anchor="middle" x="595.22" y="-262.95" font-family="Times New Roman,serif" font-size="14.00">Contribute new SignalxD to HyperSpy</text>
</g>
<!-- D&#45;&gt;E -->
<g id="edge5" class="edge">
<title>D&#45;&gt;E</title>
<path fill="none" stroke="black" d="M705.96,-339.43C685.12,-326.18 655.28,-307.2 631.83,-292.28"/>
<polygon fill="black" stroke="black" points="633.8,-289.39 623.49,-286.98 630.05,-295.3 633.8,-289.39"/>
<text text-anchor="middle" x="684.47" y="-307.2" font-family="Times New Roman,serif" font-size="14.00">No</text>
</g>
<!-- F -->
<g id="node6" class="node">
<title>F</title>
<polygon fill="none" stroke="black" points="690.22,-213 392.5,-195 690.22,-177 987.95,-195 690.22,-213"/>
<text text-anchor="middle" x="690.22" y="-189.95" font-family="Times New Roman,serif" font-size="14.00">Is the function useful for a specific type of data only?</text>
</g>
<!-- D&#45;&gt;F -->
<g id="edge4" class="edge">
<title>D&#45;&gt;F</title>
<path fill="none" stroke="black" d="M742.67,-338.72C755.74,-317.29 773.58,-279.47 759.22,-250 752.86,-236.94 741.65,-226.12 730.08,-217.67"/>
<polygon fill="black" stroke="black" points="732.32,-214.96 722.08,-212.26 728.4,-220.76 732.32,-214.96"/>
<text text-anchor="middle" x="774.35" y="-262.95" font-family="Times New Roman,serif" font-size="14.00">Yes</text>
</g>
<!-- E&#45;&gt;F -->
<g id="edge6" class="edge">
<title>E&#45;&gt;F</title>
<path fill="none" stroke="black" d="M618.22,-249.81C630.71,-240.48 646.32,-228.81 659.8,-218.73"/>
<polygon fill="black" stroke="black" points="661.61,-221.75 667.53,-212.96 657.42,-216.14 661.61,-221.75"/>
</g>
<!-- G -->
<g id="node7" class="node">
<title>G</title>
<ellipse fill="none" stroke="black" cx="670.22" cy="-106.5" rx="105.09" ry="18"/>
<text text-anchor="middle" x="670.22" y="-101.45" font-family="Times New Roman,serif" font-size="14.00">Contribute it to SignalxD</text>
</g>
<!-- F&#45;&gt;G -->
<g id="edge8" class="edge">
<title>F&#45;&gt;G</title>
<path fill="none" stroke="black" d="M686.27,-176.91C683.58,-165.26 679.94,-149.55 676.81,-136.02"/>
<polygon fill="black" stroke="black" points="680.24,-135.28 674.57,-126.32 673.42,-136.86 680.24,-135.28"/>
<text text-anchor="middle" x="690.47" y="-145.7" font-family="Times New Roman,serif" font-size="14.00">No</text>
</g>
<!-- H -->
<g id="node8" class="node">
<title>H</title>
<polygon fill="none" stroke="black" points="1018.22,-124.5 792.88,-106.5 1018.22,-88.5 1243.57,-106.5 1018.22,-124.5"/>
<text text-anchor="middle" x="1018.22" y="-101.45" font-family="Times New Roman,serif" font-size="14.00">Does a signal for that sort of data exist?</text>
</g>
<!-- F&#45;&gt;H -->
<g id="edge7" class="edge">
<title>F&#45;&gt;H</title>
<path fill="none" stroke="black" d="M744.02,-179.81C802.27,-164.45 895.06,-139.98 956.31,-123.83"/>
<polygon fill="black" stroke="black" points="957.12,-127.23 965.9,-121.3 955.34,-120.46 957.12,-127.23"/>
<text text-anchor="middle" x="893.35" y="-145.7" font-family="Times New Roman,serif" font-size="14.00">Yes</text>
</g>
<!-- I -->
<g id="node9" class="node">
<title>I</title>
<ellipse fill="none" stroke="black" cx="784.22" cy="-18" rx="201.82" ry="18"/>
<text text-anchor="middle" x="784.22" y="-12.95" font-family="Times New Roman,serif" font-size="14.00">Contribute to package providing the relevant signal</text>
</g>
<!-- H&#45;&gt;I -->
<g id="edge9" class="edge">
<title>H&#45;&gt;I</title>
<path fill="none" stroke="black" d="M979.32,-91.12C941.46,-77.12 883.52,-55.71 840.61,-39.85"/>
<polygon fill="black" stroke="black" points="842.06,-36.65 831.47,-36.47 839.63,-43.22 842.06,-36.65"/>
<text text-anchor="middle" x="931.35" y="-57.2" font-family="Times New Roman,serif" font-size="14.00">Yes</text>
</g>
<!-- J -->
<g id="node10" class="node">
<title>J</title>
<ellipse fill="none" stroke="black" cx="1251.22" cy="-18" rx="246.86" ry="18"/>
<text text-anchor="middle" x="1251.22" y="-12.95" font-family="Times New Roman,serif" font-size="14.00">Create you own package and signal subclass to host the funtion</text>
</g>
<!-- H&#45;&gt;J -->
<g id="edge10" class="edge">
<title>H&#45;&gt;J</title>
<path fill="none" stroke="black" d="M1056.96,-91.12C1094.46,-77.2 1151.73,-55.93 1194.39,-40.1"/>
<polygon fill="black" stroke="black" points="1195.6,-43.38 1203.76,-36.62 1193.17,-36.82 1195.6,-43.38"/>
<text text-anchor="middle" x="1163.47" y="-57.2" font-family="Times New Roman,serif" font-size="14.00">No</text>
</g>
</g>
</svg>
