<?xml version="1.0" encoding="UTF-8" standalone="no"?>
<!DOCTYPE svg PUBLIC "-//W3C//DTD SVG 1.1//EN"
 "http://www.w3.org/Graphics/SVG/1.1/DTD/svg11.dtd">
<!-- Generated by graphviz version 11.0.0 (0)
 -->
<!-- Title: G Pages: 1 -->
<svg width="1030pt" height="563pt"
 viewBox="0.00 0.00 1029.51 562.50" xmlns="http://www.w3.org/2000/svg" xmlns:xlink="http://www.w3.org/1999/xlink">
<g id="graph0" class="graph" transform="scale(1 1) rotate(0) translate(4 558.5)">
<title>G</title>
<polygon fill="white" stroke="none" points="-4,4 -4,-558.5 1025.51,-558.5 1025.51,4 -4,4"/>
<!-- A -->
<g id="node1" class="node">
<title>A</title>
<ellipse fill="none" stroke="black" cx="443.6" cy="-536.5" rx="104.07" ry="18"/>
<text text-anchor="middle" x="443.6" y="-531.45" font-family="Times New Roman,serif" font-size="14.00">New component needed!</text>
</g>
<!-- B -->
<g id="node2" class="node">
<title>B</title>
<polygon fill="none" stroke="black" points="443.6,-482.5 233.45,-464.5 443.6,-446.5 653.74,-464.5 443.6,-482.5"/>
<text text-anchor="middle" x="443.6" y="-459.45" font-family="Times New Roman,serif" font-size="14.00">Can it be declared using Expression?</text>
</g>
<!-- A&#45;&gt;B -->
<g id="edge1" class="edge">
<title>A&#45;&gt;B</title>
<path fill="none" stroke="black" d="M443.6,-518.2C443.6,-510.91 443.6,-502.23 443.6,-494.04"/>
<polygon fill="black" stroke="black" points="447.1,-494.12 443.6,-484.12 440.1,-494.12 447.1,-494.12"/>
</g>
<!-- C -->
<g id="node3" class="node">
<title>C</title>
<polygon fill="none" stroke="black" points="340.6,-394 161.57,-376 340.6,-358 519.62,-376 340.6,-394"/>
<text text-anchor="middle" x="340.6" y="-370.95" font-family="Times New Roman,serif" font-size="14.00">Can it be useful to other users?</text>
</g>
<!-- B&#45;&gt;C -->
<g id="edge2" class="edge">
<title>B&#45;&gt;C</title>
<path fill="none" stroke="black" d="M424.7,-447.63C408.63,-434.14 385.36,-414.6 367.37,-399.49"/>
<polygon fill="black" stroke="black" points="370.09,-397.2 360.18,-393.45 365.59,-402.56 370.09,-397.2"/>
<text text-anchor="middle" x="411.72" y="-415.2" font-family="Times New Roman,serif" font-size="14.00">Yes</text>
</g>
<!-- F -->
<g id="node6" class="node">
<title>F</title>
<ellipse fill="none" stroke="black" cx="547.6" cy="-322" rx="146.55" ry="18"/>
<text text-anchor="middle" x="547.6" y="-316.95" font-family="Times New Roman,serif" font-size="14.00">Create new component from scratch</text>
</g>
<!-- B&#45;&gt;F -->
<g id="edge3" class="edge">
<title>B&#45;&gt;F</title>
<path fill="none" stroke="black" d="M469.62,-448.47C488.67,-436.17 513.7,-417.06 528.6,-394 536.79,-381.32 541.47,-365.19 544.13,-351.51"/>
<polygon fill="black" stroke="black" points="547.56,-352.2 545.74,-341.76 540.66,-351.06 547.56,-352.2"/>
<text text-anchor="middle" x="521.85" y="-415.2" font-family="Times New Roman,serif" font-size="14.00">No</text>
</g>
<!-- D -->
<g id="node4" class="node">
<title>D</title>
<ellipse fill="none" stroke="black" cx="83.6" cy="-268" rx="83.6" ry="18"/>
<text text-anchor="middle" x="83.6" y="-262.95" font-family="Times New Roman,serif" font-size="14.00">Just use Expression</text>
</g>
<!-- C&#45;&gt;D -->
<g id="edge5" class="edge">
<title>C&#45;&gt;D</title>
<path fill="none" stroke="black" d="M306.73,-361.03C261.81,-342.51 182.27,-309.7 131.29,-288.67"/>
<polygon fill="black" stroke="black" points="132.85,-285.53 122.27,-284.95 130.18,-292 132.85,-285.53"/>
<text text-anchor="middle" x="258.85" y="-316.95" font-family="Times New Roman,serif" font-size="14.00">No</text>
</g>
<!-- E -->
<g id="node5" class="node">
<title>E</title>
<ellipse fill="none" stroke="black" cx="348.6" cy="-268" rx="162.93" ry="18"/>
<text text-anchor="middle" x="348.6" y="-262.95" font-family="Times New Roman,serif" font-size="14.00">Create new component using Expression</text>
</g>
<!-- C&#45;&gt;E -->
<g id="edge4" class="edge">
<title>C&#45;&gt;E</title>
<path fill="none" stroke="black" d="M341.88,-357.97C343.1,-341.76 344.97,-317.06 346.42,-297.79"/>
<polygon fill="black" stroke="black" points="349.91,-298.08 347.17,-287.85 342.93,-297.56 349.91,-298.08"/>
<text text-anchor="middle" x="356.72" y="-316.95" font-family="Times New Roman,serif" font-size="14.00">Yes</text>
</g>
<!-- G -->
<g id="node7" class="node">
<title>G</title>
<polygon fill="none" stroke="black" points="447.6,-213 279.43,-195 447.6,-177 615.76,-195 447.6,-213"/>
<text text-anchor="middle" x="447.6" y="-189.95" font-family="Times New Roman,serif" font-size="14.00">Is it useful for general users?</text>
</g>
<!-- E&#45;&gt;G -->
<g id="edge6" class="edge">
<title>E&#45;&gt;G</title>
<path fill="none" stroke="black" d="M372.56,-249.81C386.08,-240.12 403.1,-227.91 417.51,-217.58"/>
<polygon fill="black" stroke="black" points="419.22,-220.65 425.31,-211.98 415.14,-214.97 419.22,-220.65"/>
</g>
<!-- F&#45;&gt;G -->
<g id="edge7" class="edge">
<title>F&#45;&gt;G</title>
<path fill="none" stroke="black" d="M543.92,-303.58C540.05,-288.3 532.78,-266.08 520.6,-250 510.63,-236.86 496.62,-225.44 483.54,-216.53"/>
<polygon fill="black" stroke="black" points="485.81,-213.83 475.51,-211.32 481.99,-219.7 485.81,-213.83"/>
</g>
<!-- H -->
<g id="node8" class="node">
<title>H</title>
<ellipse fill="none" stroke="black" cx="426.6" cy="-106.5" rx="107.65" ry="18"/>
<text text-anchor="middle" x="426.6" y="-101.45" font-family="Times New Roman,serif" font-size="14.00">Contribute it to HyperSpy</text>
</g>
<!-- G&#45;&gt;H -->
<g id="edge8" class="edge">
<title>G&#45;&gt;H</title>
<path fill="none" stroke="black" d="M443.55,-177.32C440.68,-165.51 436.76,-149.38 433.42,-135.6"/>
<polygon fill="black" stroke="black" points="436.89,-135.08 431.13,-126.19 430.09,-136.73 436.89,-135.08"/>
<text text-anchor="middle" x="449.72" y="-145.7" font-family="Times New Roman,serif" font-size="14.00">Yes</text>
</g>
<!-- I -->
<g id="node9" class="node">
<title>I</title>
<polygon fill="none" stroke="black" points="728.6,-124.5 552.47,-106.5 728.6,-88.5 904.72,-106.5 728.6,-124.5"/>
<text text-anchor="middle" x="728.6" y="-101.45" font-family="Times New Roman,serif" font-size="14.00">Does a suitable package exist?</text>
</g>
<!-- G&#45;&gt;I -->
<g id="edge9" class="edge">
<title>G&#45;&gt;I</title>
<path fill="none" stroke="black" d="M489.66,-181.05C539.22,-165.79 621.62,-140.43 675.52,-123.84"/>
<polygon fill="black" stroke="black" points="676.26,-127.27 684.79,-120.98 674.21,-120.58 676.26,-127.27"/>
<text text-anchor="middle" x="620.85" y="-145.7" font-family="Times New Roman,serif" font-size="14.00">No</text>
</g>
<!-- J -->
<g id="node10" class="node">
<title>J</title>
<ellipse fill="none" stroke="black" cx="575.6" cy="-18" rx="146.55" ry="18"/>
<text text-anchor="middle" x="575.6" y="-12.95" font-family="Times New Roman,serif" font-size="14.00">Contribute it to the relevant package</text>
</g>
<!-- I&#45;&gt;J -->
<g id="edge10" class="edge">
<title>I&#45;&gt;J</title>
<path fill="none" stroke="black" d="M702.64,-90.83C678.72,-77.3 642.87,-57.04 615.35,-41.47"/>
<polygon fill="black" stroke="black" points="617.36,-38.59 606.94,-36.72 613.92,-44.69 617.36,-38.59"/>
<text text-anchor="middle" x="675.72" y="-57.2" font-family="Times New Roman,serif" font-size="14.00">Yes</text>
</g>
<!-- K -->
<g id="node11" class="node">
<title>K</title>
<ellipse fill="none" stroke="black" cx="880.6" cy="-18" rx="140.92" ry="18"/>
<text text-anchor="middle" x="880.6" y="-12.95" font-family="Times New Roman,serif" font-size="14.00">Create your own package to host it</text>
</g>
<!-- I&#45;&gt;K -->
<g id="edge11" class="edge">
<title>I&#45;&gt;K</title>
<path fill="none" stroke="black" d="M754.38,-90.83C778.14,-77.3 813.76,-57.04 841.1,-41.47"/>
<polygon fill="black" stroke="black" points="842.49,-44.71 849.45,-36.72 839.03,-38.63 842.49,-44.71"/>
<text text-anchor="middle" x="825.85" y="-57.2" font-family="Times New Roman,serif" font-size="14.00">No</text>
</g>
</g>
</svg>
