<?xml version="1.0" encoding="UTF-8" standalone="no"?>
<!DOCTYPE svg PUBLIC "-//W3C//DTD SVG 1.1//EN"
 "http://www.w3.org/Graphics/SVG/1.1/DTD/svg11.dtd">
<!-- Generated by graphviz version 2.42.3 (20191010.1750)
 -->
<!-- Title: G Pages: 1 -->
<svg width="1440pt" height="538pt"
 viewBox="0.00 0.00 1439.56 538.00" xmlns="http://www.w3.org/2000/svg" xmlns:xlink="http://www.w3.org/1999/xlink">
<g id="graph0" class="graph" transform="scale(1 1) rotate(0) translate(4 534)">
<title>G</title>
<polygon fill="white" stroke="transparent" points="-4,4 -4,-534 1435.56,-534 1435.56,4 -4,4"/>
<!-- A -->
<g id="node1" class="node">
<title>A</title>
<ellipse fill="none" stroke="black" cx="258.28" cy="-512" rx="89.08" ry="18"/>
<text text-anchor="middle" x="258.28" y="-508.3" font-family="Times,serif" font-size="14.00">New function needed!</text>
</g>
<!-- B -->
<g id="node2" class="node">
<title>B</title>
<polygon fill="none" stroke="black" points="258.28,-457 0.22,-439 258.28,-421 516.35,-439 258.28,-457"/>
<text text-anchor="middle" x="258.28" y="-435.3" font-family="Times,serif" font-size="14.00">Is it useful for data of any type and dimensions?</text>
</g>
<!-- A&#45;&gt;B -->
<g id="edge1" class="edge">
<title>A&#45;&gt;B</title>
<path fill="none" stroke="black" d="M258.28,-493.81C258.28,-485.79 258.28,-476.05 258.28,-467.07"/>
<polygon fill="black" stroke="black" points="261.78,-467.03 258.28,-457.03 254.78,-467.03 261.78,-467.03"/>
</g>
<!-- C -->
<g id="node3" class="node">
<title>C</title>
<ellipse fill="none" stroke="black" cx="236.28" cy="-352" rx="106.68" ry="18"/>
<text text-anchor="middle" x="236.28" y="-348.3" font-family="Times,serif" font-size="14.00">Contribute it to BaseSignal</text>
</g>
<!-- B&#45;&gt;C -->
<g id="edge2" class="edge">
<title>B&#45;&gt;C</title>
<path fill="none" stroke="black" d="M253.94,-421.21C250.88,-409.41 246.73,-393.38 243.23,-379.82"/>
<polygon fill="black" stroke="black" points="246.59,-378.85 240.7,-370.05 239.81,-380.61 246.59,-378.85"/>
<text text-anchor="middle" x="260.28" y="-391.8" font-family="Times,serif" font-size="14.00">Yes</text>
</g>
<!-- D -->
<g id="node4" class="node">
<title>D</title>
<polygon fill="none" stroke="black" points="697.28,-370 360.96,-352 697.28,-334 1033.61,-352 697.28,-370"/>
<text text-anchor="middle" x="697.28" y="-348.3" font-family="Times,serif" font-size="14.00">Does a SignalxD for the required dimension exist in HyperSpy?</text>
</g>
<!-- B&#45;&gt;D -->
<g id="edge3" class="edge">
<title>B&#45;&gt;D</title>
<path fill="none" stroke="black" d="M323.06,-425.46C401.56,-410.26 533.77,-384.66 618.2,-368.31"/>
<polygon fill="black" stroke="black" points="619.1,-371.7 628.26,-366.37 617.77,-364.83 619.1,-371.7"/>
<text text-anchor="middle" x="512.78" y="-391.8" font-family="Times,serif" font-size="14.00">No</text>
</g>
<!-- E -->
<g id="node5" class="node">
<title>E</title>
<ellipse fill="none" stroke="black" cx="567.28" cy="-265" rx="148.37" ry="18"/>
<text text-anchor="middle" x="567.28" y="-261.3" font-family="Times,serif" font-size="14.00">Contribute new SignalxD to HyperSpy</text>
</g>
<!-- D&#45;&gt;E -->
<g id="edge5" class="edge">
<title>D&#45;&gt;E</title>
<path fill="none" stroke="black" d="M673.14,-335.21C653.04,-322.07 624.19,-303.21 601.68,-288.49"/>
<polygon fill="black" stroke="black" points="603.37,-285.41 593.08,-282.87 599.54,-291.27 603.37,-285.41"/>
<text text-anchor="middle" x="648.78" y="-304.8" font-family="Times,serif" font-size="14.00">No</text>
</g>
<!-- F -->
<g id="node6" class="node">
<title>F</title>
<polygon fill="none" stroke="black" points="659.28,-210 375.24,-192 659.28,-174 943.32,-192 659.28,-210"/>
<text text-anchor="middle" x="659.28" y="-188.3" font-family="Times,serif" font-size="14.00">Is the function useful for a specific type of data only?</text>
</g>
<!-- D&#45;&gt;F -->
<g id="edge4" class="edge">
<title>D&#45;&gt;F</title>
<path fill="none" stroke="black" d="M708.28,-334.51C720.84,-313.44 737.99,-276.21 724.28,-247 718.11,-233.85 707,-222.8 695.68,-214.19"/>
<polygon fill="black" stroke="black" points="697.66,-211.3 687.48,-208.35 693.6,-217 697.66,-211.3"/>
<text text-anchor="middle" x="741.28" y="-261.3" font-family="Times,serif" font-size="14.00">Yes</text>
</g>
<!-- E&#45;&gt;F -->
<g id="edge6" class="edge">
<title>E&#45;&gt;F</title>
<path fill="none" stroke="black" d="M589.09,-247.17C601.58,-237.53 617.41,-225.31 630.87,-214.93"/>
<polygon fill="black" stroke="black" points="633.12,-217.61 638.9,-208.73 628.84,-212.07 633.12,-217.61"/>
</g>
<!-- G -->
<g id="node7" class="node">
<title>G</title>
<ellipse fill="none" stroke="black" cx="639.28" cy="-105" rx="100.98" ry="18"/>
<text text-anchor="middle" x="639.28" y="-101.3" font-family="Times,serif" font-size="14.00">Contribute it to SignalxD</text>
</g>
<!-- F&#45;&gt;G -->
<g id="edge8" class="edge">
<title>F&#45;&gt;G</title>
<path fill="none" stroke="black" d="M655.33,-174.21C652.56,-162.41 648.78,-146.38 645.59,-132.82"/>
<polygon fill="black" stroke="black" points="648.99,-131.98 643.29,-123.05 642.18,-133.59 648.99,-131.98"/>
<text text-anchor="middle" x="659.78" y="-144.8" font-family="Times,serif" font-size="14.00">No</text>
</g>
<!-- H -->
<g id="node8" class="node">
<title>H</title>
<polygon fill="none" stroke="black" points="973.28,-123 758.12,-105 973.28,-87 1188.45,-105 973.28,-123"/>
<text text-anchor="middle" x="973.28" y="-101.3" font-family="Times,serif" font-size="14.00">Does a signal for that sort of data exist?</text>
</g>
<!-- F&#45;&gt;H -->
<g id="edge7" class="edge">
<title>F&#45;&gt;H</title>
<path fill="none" stroke="black" d="M710.43,-177.15C766.61,-161.95 856.65,-137.57 915.38,-121.67"/>
<polygon fill="black" stroke="black" points="916.51,-124.99 925.25,-119 914.68,-118.24 916.51,-124.99"/>
<text text-anchor="middle" x="845.28" y="-144.8" font-family="Times,serif" font-size="14.00">Yes</text>
</g>
<!-- I -->
<g id="node9" class="node">
<title>I</title>
<ellipse fill="none" stroke="black" cx="750.28" cy="-18" rx="192.27" ry="18"/>
<text text-anchor="middle" x="750.28" y="-14.3" font-family="Times,serif" font-size="14.00">Contribute to package providing the relevant signal</text>
</g>
<!-- H&#45;&gt;I -->
<g id="edge9" class="edge">
<title>H&#45;&gt;I</title>
<path fill="none" stroke="black" d="M936.46,-89.96C900.27,-76.17 844.65,-54.97 803.63,-39.33"/>
<polygon fill="black" stroke="black" points="804.65,-35.98 794.06,-35.69 802.16,-42.52 804.65,-35.98"/>
<text text-anchor="middle" x="885.28" y="-57.8" font-family="Times,serif" font-size="14.00">Yes</text>
</g>
<!-- J -->
<g id="node10" class="node">
<title>J</title>
<ellipse fill="none" stroke="black" cx="1196.28" cy="-18" rx="235.06" ry="18"/>
<text text-anchor="middle" x="1196.28" y="-14.3" font-family="Times,serif" font-size="14.00">Create you own package and signal subclass to host the funtion</text>
</g>
<!-- H&#45;&gt;J -->
<g id="edge10" class="edge">
<title>H&#45;&gt;J</title>
<path fill="none" stroke="black" d="M1010.11,-89.96C1046.18,-76.21 1101.56,-55.1 1142.55,-39.48"/>
<polygon fill="black" stroke="black" points="1144.02,-42.67 1152.11,-35.84 1141.52,-36.13 1144.02,-42.67"/>
<text text-anchor="middle" x="1105.78" y="-57.8" font-family="Times,serif" font-size="14.00">No</text>
</g>
</g>
</svg>
